SplineFontDB: 3.0
FontName: Marvel-Bold
FullName: Marvel Bold
FamilyName: Marvel
Weight: Bold
Copyright: Copyright (c) 2011, Carolina Trebol <ca@fromzero.org>, with Reserved Font Name "Marvel".
Version: 1.001
ItalicAngle: 0
UnderlinePosition: -50
UnderlineWidth: 50
Ascent: 800
Descent: 200
sfntRevision: 0x00010042
LayerCount: 2
Layer: 0 1 "Back"  1
Layer: 1 1 "Fore"  0
XUID: [1021 288 713564382 11285463]
FSType: 0
OS2Version: 3
OS2_WeightWidthSlopeOnly: 0
OS2_UseTypoMetrics: 1
CreationTime: 1305456540
ModificationTime: 1311993698
PfmFamily: 17
TTFWeight: 700
TTFWidth: 5
LineGap: 0
VLineGap: 0
Panose: 2 0 0 0 0 0 0 0 0 0
OS2TypoAscent: 151
OS2TypoAOffset: 1
OS2TypoDescent: -59
OS2TypoDOffset: 1
OS2TypoLinegap: 0
OS2WinAscent: 7
OS2WinAOffset: 1
OS2WinDescent: 7
OS2WinDOffset: 1
HheadAscent: 7
HheadAOffset: 1
HheadDescent: -7
HheadDOffset: 1
OS2SubXSize: 700
OS2SubYSize: 650
OS2SubXOff: 0
OS2SubYOff: 140
OS2SupXSize: 700
OS2SupYSize: 650
OS2SupXOff: 0
OS2SupYOff: 477
OS2StrikeYSize: 50
OS2StrikeYPos: 250
OS2Vendor: 'abcd'
OS2CodePages: 00000001.00000000
OS2UnicodeRanges: 800000a7.4800004a.14000000.00000000
Lookup: 258 0 0 "'kern' Horizontal Kerning in Latin lookup 0"  {"'kern' Horizontal Kerning in Latin lookup 0 subtable"  } ['kern' ('DFLT' <'dflt' > 'latn' <'dflt' > ) ]
DEI: 91125
TtTable: prep
PUSHW_1
 511
SCANCTRL
PUSHB_1
 4
SCANTYPE
EndTTInstrs
ShortTable: maxp 16
  1
  0
  195
  115
  4
  71
  4
  2
  0
  1
  1
  0
  64
  0
  2
  1
EndShort
LangName: 1033 "" "" "" "CarolinaTrebol: Marvel: 2011" "" "Version 1.001" "" "Marvel is a trademark of Carolina Trebol." "Carolina Trebol" "Carolina Trebol" "" "fromzero.org" "fromzero.org" "This Font Software is licensed under the SIL Open Font License, Version 1.1. This license is available with a FAQ at: http://scripts.sil.org/OFL" "http://scripts.sil.org/OFL" "" "" "" "Marvel Bold" 
GaspTable: 1 65535 15
Encoding: UnicodeBmp
UnicodeInterp: none
NameList: Adobe Glyph List
DisplaySize: -36
AntiAlias: 1
FitToEm: 1

StartChar: exclam
Encoding: 33 33 4
Width: 196
Flags: W
LayerCount: 2
Fore
SplineSet
66 137 m 1,0,-1
 66 695 l 1,1,-1
 130 695 l 1,2,-1
 130 137 l 1,3,-1
 66 137 l 1,0,-1
65 1 m 1,4,-1
 65 102 l 1,5,-1
 130 102 l 1,6,-1
 130 1 l 1,7,-1
 65 1 l 1,4,-1
EndSplineSet
EndChar

StartChar: quotedbl
Encoding: 34 34 5
Width: 314
Flags: W
LayerCount: 2
Fore
SplineSet
274 637 m 2,0,1
 274 580 274 580 248.5 545 c 128,-1,2
 223 510 223 510 180 492 c 1,3,-1
 161 562 l 1,4,5
 178 570 178 570 191 587 c 128,-1,6
 204 604 204 604 204 638 c 2,7,-1
 204 695 l 1,8,-1
 274 695 l 1,9,-1
 274 637 l 2,0,1
146 637 m 2,10,11
 146 580 146 580 120.5 545 c 128,-1,12
 95 510 95 510 53 492 c 1,13,-1
 34 562 l 1,14,15
 51 570 51 570 63.5 587 c 128,-1,16
 76 604 76 604 76 638 c 2,17,-1
 76 695 l 1,18,-1
 146 695 l 1,19,-1
 146 637 l 2,10,11
EndSplineSet
EndChar

StartChar: dollar
Encoding: 36 36 6
Width: 473
Flags: W
LayerCount: 2
Fore
SplineSet
199 757 m 1,0,-1
 266 757 l 1,1,-1
 266 689 l 1,2,3
 277 687 277 687 285 684 c 128,-1,4
 293 681 293 681 301 678 c 2,5,-1
 390 642 l 1,6,-1
 368 574 l 1,7,-1
 344 585 l 2,8,9
 332 591 332 591 317.5 597.5 c 128,-1,10
 303 604 303 604 288 609.5 c 128,-1,11
 273 615 273 615 258.5 619 c 128,-1,12
 244 623 244 623 232 623 c 0,13,14
 207 623 207 623 186 612.5 c 128,-1,15
 165 602 165 602 149.5 584.5 c 128,-1,16
 134 567 134 567 125.5 544 c 128,-1,17
 117 521 117 521 117 496 c 0,18,19
 117 467 117 467 127.5 446 c 128,-1,20
 138 425 138 425 155 410.5 c 128,-1,21
 172 396 172 396 194.5 389 c 128,-1,22
 217 382 217 382 240 382 c 0,23,24
 280 382 280 382 315.5 368.5 c 128,-1,25
 351 355 351 355 377 330.5 c 128,-1,26
 403 306 403 306 418.5 272 c 128,-1,27
 434 238 434 238 434 197 c 0,28,29
 434 158 434 158 421 124 c 128,-1,30
 408 90 408 90 385.5 64.5 c 128,-1,31
 363 39 363 39 332.5 22 c 128,-1,32
 302 5 302 5 266 1 c 1,33,-1
 266 -71 l 1,34,-1
 199 -71 l 1,35,-1
 199 5 l 1,36,37
 177 12 177 12 153.5 21 c 128,-1,38
 130 30 130 30 109 38.5 c 128,-1,39
 88 47 88 47 70.5 54.5 c 128,-1,40
 53 62 53 62 44 67 c 1,41,-1
 67 132 l 1,42,43
 118 109 118 109 148.5 96.5 c 128,-1,44
 179 84 179 84 196.5 78 c 128,-1,45
 214 72 214 72 223 70.5 c 128,-1,46
 232 69 232 69 242 69 c 0,47,48
 268 69 268 69 290 78.5 c 128,-1,49
 312 88 312 88 328.5 105 c 128,-1,50
 345 122 345 122 354.5 145.5 c 128,-1,51
 364 169 364 169 364 196 c 0,52,53
 364 224 364 224 353 245 c 128,-1,54
 342 266 342 266 324.5 280 c 128,-1,55
 307 294 307 294 285 301 c 128,-1,56
 263 308 263 308 240 308 c 0,57,58
 199 308 199 308 164 321.5 c 128,-1,59
 129 335 129 335 102.5 360 c 128,-1,60
 76 385 76 385 61 418.5 c 128,-1,61
 46 452 46 452 46 493 c 0,62,63
 46 529 46 529 57.5 562 c 128,-1,64
 69 595 69 595 89.5 621.5 c 128,-1,65
 110 648 110 648 138 666 c 128,-1,66
 166 684 166 684 199 690 c 1,67,-1
 199 757 l 1,0,-1
EndSplineSet
EndChar

StartChar: ampersand
Encoding: 38 38 7
Width: 598
Flags: W
LayerCount: 2
Fore
SplineSet
215 332 m 1,0,1
 203 325 203 325 190.5 317 c 128,-1,2
 178 309 178 309 166 303 c 1,3,-1
 167 303 l 1,4,5
 134 283 134 283 115 256.5 c 128,-1,6
 96 230 96 230 96 194 c 0,7,8
 96 163 96 163 107.5 137.5 c 128,-1,9
 119 112 119 112 138.5 94 c 128,-1,10
 158 76 158 76 184 66.5 c 128,-1,11
 210 57 210 57 240 57 c 0,12,13
 294 57 294 57 333.5 77.5 c 128,-1,14
 373 98 373 98 402 131 c 1,15,-1
 215 332 l 1,0,1
530 363 m 1,16,17
 530 335 530 335 527.5 303.5 c 128,-1,18
 525 272 525 272 519.5 241.5 c 128,-1,19
 514 211 514 211 505 182 c 128,-1,20
 496 153 496 153 481 131 c 1,21,22
 507 100 507 100 537.5 65.5 c 128,-1,23
 568 31 568 31 594 0 c 1,24,-1
 515 0 l 1,25,-1
 448 84 l 1,26,27
 410 42 410 42 358 16.5 c 128,-1,28
 306 -9 306 -9 240 -9 c 0,29,30
 196 -9 196 -9 157.5 5.5 c 128,-1,31
 119 20 119 20 90.5 46 c 128,-1,32
 62 72 62 72 45.5 109.5 c 128,-1,33
 29 147 29 147 29 193 c 0,34,35
 29 247 29 247 55 285.5 c 128,-1,36
 81 324 81 324 126 351 c 0,37,38
 139 359 139 359 150 365 c 128,-1,39
 161 371 161 371 174 379 c 1,40,-1
 129 429 l 2,41,42
 103 458 103 458 91.5 485.5 c 128,-1,43
 80 513 80 513 80 548 c 0,44,45
 80 581 80 581 92.5 610.5 c 128,-1,46
 105 640 105 640 127.5 661.5 c 128,-1,47
 150 683 150 683 181 695.5 c 128,-1,48
 212 708 212 708 249 708 c 0,49,50
 285 708 285 708 316 697 c 128,-1,51
 347 686 347 686 370.5 665 c 128,-1,52
 394 644 394 644 407.5 614.5 c 128,-1,53
 421 585 421 585 421 548 c 0,54,55
 421 495 421 495 398 461.5 c 128,-1,56
 375 428 375 428 334 404 c 2,57,-1
 268 365 l 1,58,-1
 440 181 l 1,59,60
 459 218 459 218 464.5 262 c 128,-1,61
 470 306 470 306 470 363 c 1,62,-1
 530 363 l 1,16,17
358 548 m 0,63,64
 358 594 358 594 327 621 c 128,-1,65
 296 648 296 648 249 648 c 0,66,67
 206 648 206 648 175.5 621 c 128,-1,68
 145 594 145 594 145 548 c 0,69,70
 145 536 145 536 148 525 c 128,-1,71
 151 514 151 514 160 499 c 128,-1,72
 169 484 169 484 185.5 463 c 128,-1,73
 202 442 202 442 228 411 c 1,74,-1
 300 456 l 2,75,76
 326 473 326 473 342 496 c 128,-1,77
 358 519 358 519 358 548 c 0,63,64
523 11 m 1,78,-1
 513 3 l 1,79,-1
 442 89 l 1,80,-1
 452 97 l 1,81,-1
 523 11 l 1,78,-1
EndSplineSet
EndChar

StartChar: quotesingle
Encoding: 39 39 8
Width: 187
Flags: W
LayerCount: 2
Fore
SplineSet
147 637 m 1,0,1
 147 580 147 580 121.5 545 c 128,-1,2
 96 510 96 510 53 492 c 1,3,-1
 34 562 l 1,4,5
 51 570 51 570 63.5 587 c 128,-1,6
 76 604 76 604 76 638 c 2,7,-1
 76 695 l 1,8,-1
 147 695 l 1,9,-1
 147 637 l 1,10,-1
 147 637 l 1,0,1
EndSplineSet
EndChar

StartChar: parenleft
Encoding: 40 40 9
Width: 237
Flags: W
LayerCount: 2
Fore
SplineSet
58 609 m 2,0,1
 58 680 58 680 93 711.5 c 128,-1,2
 128 743 128 743 180 743 c 2,3,-1
 204 743 l 1,4,-1
 204 677 l 1,5,-1
 184 677 l 2,6,7
 159 677 159 677 141 663.5 c 128,-1,8
 123 650 123 650 123 614 c 2,9,-1
 123 82 l 2,10,11
 123 45 123 45 141 31.5 c 128,-1,12
 159 18 159 18 184 18 c 2,13,-1
 204 18 l 1,14,-1
 204 -48 l 1,15,-1
 180 -48 l 2,16,17
 128 -48 128 -48 93 -16.5 c 128,-1,18
 58 15 58 15 58 87 c 2,19,-1
 58 609 l 2,0,1
EndSplineSet
EndChar

StartChar: parenright
Encoding: 41 41 10
Width: 237
Flags: W
LayerCount: 2
Fore
SplineSet
178 86 m 1,0,1
 178 14 178 14 142.5 -17.5 c 128,-1,2
 107 -49 107 -49 56 -49 c 2,3,-1
 32 -49 l 1,4,-1
 32 18 l 1,5,-1
 51 18 l 2,6,7
 76 18 76 18 94.5 31 c 128,-1,8
 113 44 113 44 113 81 c 2,9,-1
 114 614 l 2,10,11
 114 650 114 650 95.5 663.5 c 128,-1,12
 77 677 77 677 52 677 c 2,13,-1
 33 677 l 1,14,-1
 33 743 l 1,15,-1
 57 743 l 2,16,17
 108 743 108 743 143.5 711.5 c 128,-1,18
 179 680 179 680 179 609 c 2,19,-1
 178 86 l 1,20,-1
 178 86 l 1,0,1
EndSplineSet
EndChar

StartChar: asterisk
Encoding: 42 42 11
Width: 403
Flags: W
LayerCount: 2
Fore
SplineSet
328 215 m 1,0,-1
 226 276 l 1,1,-1
 229 159 l 1,2,-1
 173 159 l 1,3,-1
 176 276 l 1,4,-1
 76 215 l 1,5,-1
 48 264 l 1,6,-1
 151 320 l 1,7,-1
 48 376 l 1,8,-1
 76 424 l 1,9,-1
 175 365 l 1,10,-1
 173 482 l 1,11,-1
 229 482 l 1,12,-1
 226 364 l 1,13,-1
 328 424 l 1,14,-1
 355 376 l 1,15,-1
 251 320 l 1,16,17
 276 306 276 306 303 292 c 128,-1,18
 330 278 330 278 354 265 c 1,19,-1
 328 215 l 1,0,-1
EndSplineSet
EndChar

StartChar: plus
Encoding: 43 43 12
Width: 430
Flags: W
LayerCount: 2
Fore
SplineSet
387 229 m 1,0,-1
 253 229 l 1,1,-1
 253 95 l 1,2,-1
 177 95 l 1,3,-1
 177 229 l 1,4,-1
 43 229 l 1,5,-1
 43 305 l 1,6,-1
 177 305 l 1,7,-1
 177 439 l 1,8,-1
 253 439 l 1,9,-1
 253 305 l 1,10,-1
 387 305 l 1,11,-1
 387 229 l 1,0,-1
EndSplineSet
EndChar

StartChar: comma
Encoding: 44 44 13
Width: 180
Flags: W
LayerCount: 2
Fore
SplineSet
128 54 m 1,0,1
 128 -3 128 -3 102.5 -38.5 c 128,-1,2
 77 -74 77 -74 34 -91 c 1,3,-1
 15 -21 l 1,4,5
 32 -13 32 -13 44.5 4 c 128,-1,6
 57 21 57 21 57 54 c 2,7,-1
 57 111 l 1,8,-1
 128 111 l 1,9,-1
 128 54 l 1,10,-1
 128 54 l 1,0,1
EndSplineSet
EndChar

StartChar: hyphen
Encoding: 45 45 14
Width: 363
Flags: W
LayerCount: 2
Fore
SplineSet
58 314 m 1,0,-1
 58 390 l 1,1,-1
 305 390 l 1,2,-1
 305 314 l 1,3,-1
 58 314 l 1,0,-1
EndSplineSet
EndChar

StartChar: period
Encoding: 46 46 15
Width: 189
Flags: W
LayerCount: 2
Fore
SplineSet
54 5 m 1,0,-1
 54 104 l 1,1,-1
 135 104 l 1,2,-1
 135 5 l 1,3,-1
 54 5 l 1,0,-1
EndSplineSet
EndChar

StartChar: slash
Encoding: 47 47 16
Width: 264
Flags: W
LayerCount: 2
Fore
SplineSet
146 694 m 1,0,-1
 218 694 l 1,1,-1
 118 1 l 1,2,-1
 46 1 l 1,3,-1
 146 694 l 1,0,-1
EndSplineSet
EndChar

StartChar: zero
Encoding: 48 48 17
Width: 436
Flags: W
LayerCount: 2
Fore
SplineSet
233 56 m 2,0,1
 263 56 263 56 284.5 79 c 128,-1,2
 306 102 306 102 306 134 c 2,3,-1
 306 511 l 2,4,5
 306 546 306 546 280.5 565.5 c 128,-1,6
 255 585 255 585 223 585 c 0,7,8
 204 585 204 585 187 581.5 c 128,-1,9
 170 578 170 578 157 569 c 128,-1,10
 144 560 144 560 136.5 546 c 128,-1,11
 129 532 129 532 129 511 c 2,12,-1
 129 134 l 2,13,14
 129 102 129 102 150 79 c 128,-1,15
 171 56 171 56 202 56 c 2,16,-1
 233 56 l 2,0,1
370 131 m 2,17,18
 370 101 370 101 359.5 75.5 c 128,-1,19
 349 50 349 50 330 31.5 c 128,-1,20
 311 13 311 13 286 2 c 128,-1,21
 261 -9 261 -9 233 -9 c 2,22,-1
 201 -9 l 2,23,24
 172 -9 172 -9 147.5 2 c 128,-1,25
 123 13 123 13 105 31.5 c 128,-1,26
 87 50 87 50 76.5 75.5 c 128,-1,27
 66 101 66 101 66 131 c 2,28,-1
 66 511 l 2,29,30
 66 541 66 541 76.5 566.5 c 128,-1,31
 87 592 87 592 105.5 610.5 c 128,-1,32
 124 629 124 629 148.5 640 c 128,-1,33
 173 651 173 651 202 651 c 2,34,-1
 234 651 l 2,35,36
 262 651 262 651 287 640 c 128,-1,37
 312 629 312 629 330.5 610.5 c 128,-1,38
 349 592 349 592 359.5 566.5 c 128,-1,39
 370 541 370 541 370 511 c 2,40,-1
 370 131 l 2,17,18
EndSplineSet
EndChar

StartChar: one
Encoding: 49 49 18
Width: 217
Flags: W
LayerCount: 2
Fore
SplineSet
75 617 m 1,0,-1
 141 650 l 1,1,-1
 141 1 l 1,2,-1
 75 1 l 1,3,-1
 75 617 l 1,0,-1
EndSplineSet
EndChar

StartChar: two
Encoding: 50 50 19
Width: 399
Flags: W
LayerCount: 2
Fore
SplineSet
254 367 m 2,0,1
 269 389 269 389 275 411.5 c 128,-1,2
 281 434 281 434 282 460 c 1,3,4
 281 485 281 485 273.5 507.5 c 128,-1,5
 266 530 266 530 253 547 c 128,-1,6
 240 564 240 564 221.5 574.5 c 128,-1,7
 203 585 203 585 181 585 c 0,8,9
 176 585 176 585 169.5 583.5 c 128,-1,10
 163 582 163 582 150 577.5 c 128,-1,11
 137 573 137 573 115 564.5 c 128,-1,12
 93 556 93 556 58 541 c 1,13,-1
 31 604 l 1,14,-1
 111 636 l 2,15,16
 126 643 126 643 147 647 c 128,-1,17
 168 651 168 651 183 652 c 1,18,19
 218 652 218 652 248.5 637 c 128,-1,20
 279 622 279 622 301 596.5 c 128,-1,21
 323 571 323 571 335.5 536.5 c 128,-1,22
 348 502 348 502 348 463 c 0,23,24
 348 428 348 428 341 398.5 c 128,-1,25
 334 369 334 369 311 338 c 1,26,27
 285 293 285 293 254.5 245 c 128,-1,28
 224 197 224 197 198 158 c 0,29,30
 167 111 167 111 138 68 c 1,31,-1
 346 68 l 1,32,-1
 346 0 l 1,33,-1
 62 0 l 1,34,-1
 62 72 l 1,35,-1
 254 367 l 2,0,1
EndSplineSet
EndChar

StartChar: three
Encoding: 51 51 20
Width: 414
Flags: W
LayerCount: 2
Fore
SplineSet
43 605 m 1,0,-1
 118 635 l 1,1,-1
 118 634 l 1,2,3
 125 637 125 637 136 640.5 c 128,-1,4
 147 644 147 644 158 646.5 c 128,-1,5
 169 649 169 649 179 650.5 c 128,-1,6
 189 652 189 652 196 652 c 0,7,8
 232 651 232 651 261.5 637 c 128,-1,9
 291 623 291 623 311.5 598.5 c 128,-1,10
 332 574 332 574 343.5 540.5 c 128,-1,11
 355 507 355 507 355 468 c 0,12,13
 355 427 355 427 343 396.5 c 128,-1,14
 331 366 331 366 295 334 c 1,15,16
 316 317 316 317 327.5 298 c 128,-1,17
 339 279 339 279 345 259 c 128,-1,18
 351 239 351 239 352.5 218.5 c 128,-1,19
 354 198 354 198 354 178 c 0,20,21
 354 139 354 139 341.5 105 c 128,-1,22
 329 71 329 71 307 45.5 c 128,-1,23
 285 20 285 20 254.5 5 c 128,-1,24
 224 -10 224 -10 189 -10 c 1,25,26
 173 -9 173 -9 152.5 -5 c 128,-1,27
 132 -1 132 -1 117 5 c 2,28,-1
 44 33 l 1,29,-1
 62 99 l 1,30,-1
 149 62 l 1,31,-1
 149 63 l 1,32,33
 159 59 159 59 169 56.5 c 128,-1,34
 179 54 179 54 187 54 c 0,35,36
 209 54 209 54 228 64.5 c 128,-1,37
 247 75 247 75 261 93 c 128,-1,38
 275 111 275 111 283 134 c 128,-1,39
 291 157 291 157 292 182 c 0,40,41
 292 206 292 206 286 228.5 c 128,-1,42
 280 251 280 251 268 268 c 128,-1,43
 256 285 256 285 237.5 295 c 128,-1,44
 219 305 219 305 192 305 c 2,45,-1
 130 305 l 1,46,-1
 130 367 l 1,47,-1
 193 367 l 2,48,49
 247 367 247 367 269 397.5 c 128,-1,50
 291 428 291 428 292 477 c 1,51,52
 291 502 291 502 281.5 522 c 128,-1,53
 272 542 272 542 258 556 c 128,-1,54
 244 570 244 570 227 578 c 128,-1,55
 210 586 210 586 193 586 c 0,56,57
 183 586 183 586 169.5 583.5 c 128,-1,58
 156 581 156 581 147 577 c 2,59,-1
 70 542 l 1,60,-1
 43 605 l 1,0,-1
EndSplineSet
EndChar

StartChar: four
Encoding: 52 52 21
Width: 396
Flags: W
LayerCount: 2
Fore
SplineSet
277 0 m 1,0,-1
 277 190 l 1,1,-1
 31 190 l 1,2,-1
 31 256 l 1,3,-1
 180 646 l 1,4,-1
 248 646 l 1,5,-1
 104 256 l 1,6,-1
 277 256 l 1,7,-1
 277 367 l 1,8,-1
 343 367 l 1,9,-1
 343 0 l 1,10,-1
 277 0 l 1,0,-1
EndSplineSet
EndChar

StartChar: five
Encoding: 53 53 22
Width: 427
Flags: W
LayerCount: 2
Fore
SplineSet
383 196 m 1,0,1
 383 154 383 154 373 117 c 128,-1,2
 363 80 363 80 342.5 52.5 c 128,-1,3
 322 25 322 25 292 8.5 c 128,-1,4
 262 -8 262 -8 222 -8 c 0,5,6
 201 -8 201 -8 173.5 -1 c 128,-1,7
 146 6 146 6 120.5 15 c 128,-1,8
 95 24 95 24 77.5 31.5 c 128,-1,9
 60 39 60 39 60 39 c 1,10,-1
 80 101 l 1,11,12
 105 90 105 90 131 82 c 1,13,14
 153 74 153 74 176.5 68.5 c 128,-1,15
 200 63 200 63 220 63 c 0,16,17
 245 63 245 63 263 74 c 128,-1,18
 281 85 281 85 292.5 103 c 128,-1,19
 304 121 304 121 309.5 145 c 128,-1,20
 315 169 315 169 315 196 c 2,21,-1
 315 225 l 2,22,23
 315 252 315 252 309.5 276 c 128,-1,24
 304 300 304 300 292 318 c 128,-1,25
 280 336 280 336 262 346.5 c 128,-1,26
 244 357 244 357 219 357 c 2,27,-1
 62 357 l 1,28,-1
 62 646 l 1,29,-1
 329 646 l 1,30,-1
 329 582 l 1,31,-1
 133 582 l 1,32,-1
 133 423 l 1,33,-1
 220 423 l 2,34,35
 260 423 260 423 291 408 c 128,-1,36
 322 393 322 393 342 366.5 c 128,-1,37
 362 340 362 340 372.5 303.5 c 128,-1,38
 383 267 383 267 383 225 c 2,39,-1
 383 196 l 1,40,-1
 383 196 l 1,0,1
EndSplineSet
EndChar

StartChar: six
Encoding: 54 54 23
Width: 419
Flags: W
LayerCount: 2
Fore
SplineSet
202 352 m 2,0,1
 172 352 172 352 150.5 329 c 128,-1,2
 129 306 129 306 129 274 c 2,3,-1
 129 129 l 2,4,5
 129 91 129 91 156 72.5 c 128,-1,6
 183 54 183 54 219 54 c 0,7,8
 254 54 254 54 280 71.5 c 128,-1,9
 306 89 306 89 306 129 c 2,10,-1
 306 274 l 2,11,12
 306 306 306 306 284.5 329 c 128,-1,13
 263 352 263 352 233 352 c 2,14,-1
 202 352 l 2,0,1
201 -7 m 2,15,16
 173 -7 173 -7 148.5 4 c 128,-1,17
 124 15 124 15 105.5 33.5 c 128,-1,18
 87 52 87 52 76.5 77.5 c 128,-1,19
 66 103 66 103 66 133 c 2,20,-1
 66 497 l 2,21,22
 66 531 66 531 78.5 559.5 c 128,-1,23
 91 588 91 588 112 608.5 c 128,-1,24
 133 629 133 629 162 640.5 c 128,-1,25
 191 652 191 652 224 652 c 0,26,27
 229 652 229 652 245.5 648.5 c 128,-1,28
 262 645 262 645 279 641 c 0,29,30
 299 636 299 636 324 630 c 1,31,-1
 306 571 l 1,32,33
 285 576 285 576 267 580 c 0,34,35
 252 584 252 584 239 587 c 128,-1,36
 226 590 226 590 224 590 c 0,37,38
 185 590 185 590 156 565 c 128,-1,39
 127 540 127 540 127 497 c 2,40,-1
 127 393 l 1,41,42
 140 401 140 401 156 405.5 c 128,-1,43
 172 410 172 410 187 412 c 128,-1,44
 202 414 202 414 214.5 414.5 c 128,-1,45
 227 415 227 415 233 415 c 0,46,47
 261 415 261 415 286 403.5 c 128,-1,48
 311 392 311 392 330 372.5 c 128,-1,49
 349 353 349 353 359.5 327 c 128,-1,50
 370 301 370 301 370 271 c 2,51,-1
 370 133 l 2,52,53
 370 103 370 103 359.5 77.5 c 128,-1,54
 349 52 349 52 330 33.5 c 128,-1,55
 311 15 311 15 286 4 c 128,-1,56
 261 -7 261 -7 233 -7 c 2,57,-1
 201 -7 l 2,15,16
EndSplineSet
EndChar

StartChar: seven
Encoding: 55 55 24
Width: 363
Flags: W
LayerCount: 2
Fore
SplineSet
33 646 m 1,0,-1
 331 646 l 1,1,-1
 331 574 l 1,2,-1
 149 0 l 1,3,-1
 79 0 l 1,4,-1
 261 583 l 1,5,-1
 33 583 l 1,6,-1
 33 646 l 1,0,-1
EndSplineSet
EndChar

StartChar: eight
Encoding: 56 56 25
Width: 433
Flags: W
LayerCount: 2
Fore
SplineSet
232 52 m 2,0,1
 263 52 263 52 284.5 75.5 c 128,-1,2
 306 99 306 99 306 131 c 2,3,-1
 306 205 l 2,4,5
 306 243 306 243 278.5 261.5 c 128,-1,6
 251 280 251 280 215 280 c 0,7,8
 180 280 180 280 153.5 262.5 c 128,-1,9
 127 245 127 245 127 205 c 2,10,-1
 127 131 l 2,11,12
 127 99 127 99 148.5 75.5 c 128,-1,13
 170 52 170 52 201 52 c 2,14,-1
 232 52 l 2,0,1
232 359 m 2,15,16
 263 359 263 359 284.5 382.5 c 128,-1,17
 306 406 306 406 306 439 c 2,18,-1
 306 515 l 2,19,20
 306 550 306 550 280.5 569.5 c 128,-1,21
 255 589 255 589 222 589 c 0,22,23
 203 589 203 589 186 585.5 c 128,-1,24
 169 582 169 582 156 573 c 128,-1,25
 143 564 143 564 135 550 c 128,-1,26
 127 536 127 536 127 515 c 2,27,-1
 127 439 l 2,28,29
 127 406 127 406 148.5 382.5 c 128,-1,30
 170 359 170 359 201 359 c 2,31,-1
 232 359 l 2,15,16
64 211 m 2,32,33
 64 247 64 247 80 276 c 128,-1,34
 96 305 96 305 123 321 c 1,35,36
 96 340 96 340 80 369.5 c 128,-1,37
 64 399 64 399 64 436 c 2,38,-1
 64 519 l 2,39,40
 64 556 64 556 77 581 c 128,-1,41
 90 606 90 606 112.5 621.5 c 128,-1,42
 135 637 135 637 163.5 644 c 128,-1,43
 192 651 192 651 224 651 c 0,44,45
 253 651 253 651 279 642 c 128,-1,46
 305 633 305 633 325 616 c 128,-1,47
 345 599 345 599 357 574.5 c 128,-1,48
 369 550 369 550 369 519 c 2,49,-1
 369 436 l 2,50,51
 369 397 369 397 352.5 367 c 128,-1,52
 336 337 336 337 307 320 c 1,53,54
 335 303 335 303 352 276 c 128,-1,55
 369 249 369 249 369 211 c 2,56,-1
 369 128 l 2,57,58
 369 100 369 100 359 75 c 128,-1,59
 349 50 349 50 331.5 31.5 c 128,-1,60
 314 13 314 13 290.5 2 c 128,-1,61
 267 -9 267 -9 240 -9 c 2,62,-1
 193 -9 l 2,63,64
 166 -9 166 -9 142.5 2 c 128,-1,65
 119 13 119 13 101.5 31.5 c 128,-1,66
 84 50 84 50 74 75 c 128,-1,67
 64 100 64 100 64 128 c 2,68,-1
 64 211 l 2,32,33
EndSplineSet
EndChar

StartChar: nine
Encoding: 57 57 26
Width: 426
Flags: W
LayerCount: 2
Fore
SplineSet
223 304 m 2,0,1
 253 304 253 304 274.5 327 c 128,-1,2
 296 350 296 350 296 382 c 2,3,-1
 296 516 l 2,4,5
 296 551 296 551 270.5 570 c 128,-1,6
 245 589 245 589 213 589 c 0,7,8
 194 589 194 589 177 585.5 c 128,-1,9
 160 582 160 582 147 573.5 c 128,-1,10
 134 565 134 565 126.5 551 c 128,-1,11
 119 537 119 537 119 516 c 2,12,-1
 119 382 l 2,13,14
 119 350 119 350 140 327 c 128,-1,15
 161 304 161 304 192 304 c 2,16,-1
 223 304 l 2,0,1
224 652 m 2,17,18
 252 652 252 652 277 641 c 128,-1,19
 302 630 302 630 320.5 611.5 c 128,-1,20
 339 593 339 593 349.5 567.5 c 128,-1,21
 360 542 360 542 360 512 c 2,22,-1
 360 144 l 2,23,24
 360 110 360 110 347.5 81.5 c 128,-1,25
 335 53 335 53 313.5 32.5 c 128,-1,26
 292 12 292 12 263.5 0.5 c 128,-1,27
 235 -11 235 -11 202 -11 c 0,28,29
 196 -11 196 -11 172.5 -6 c 128,-1,30
 149 -1 149 -1 123 5 c 0,31,32
 92 12 92 12 55 22 c 1,33,-1
 73 82 l 1,34,-1
 135 66 l 2,35,36
 158 60 158 60 178.5 55.5 c 128,-1,37
 199 51 199 51 202 51 c 0,38,39
 241 51 241 51 269.5 76.5 c 128,-1,40
 298 102 298 102 298 144 c 2,41,-1
 298 263 l 1,42,43
 286 256 286 256 271.5 252 c 128,-1,44
 257 248 257 248 242 245.5 c 128,-1,45
 227 243 227 243 213.5 242 c 128,-1,46
 200 241 200 241 192 241 c 0,47,48
 163 241 163 241 138.5 252.5 c 128,-1,49
 114 264 114 264 95.5 283.5 c 128,-1,50
 77 303 77 303 66.5 329 c 128,-1,51
 56 355 56 355 56 385 c 2,52,-1
 56 512 l 2,53,54
 56 542 56 542 66.5 567.5 c 128,-1,55
 77 593 77 593 95.5 611.5 c 128,-1,56
 114 630 114 630 138.5 641 c 128,-1,57
 163 652 163 652 192 652 c 2,58,-1
 224 652 l 2,17,18
EndSplineSet
EndChar

StartChar: colon
Encoding: 58 58 27
Width: 198
Flags: W
LayerCount: 2
Fore
SplineSet
59 312 m 1,0,-1
 59 413 l 1,1,-1
 140 413 l 1,2,-1
 140 312 l 1,3,-1
 59 312 l 1,0,-1
58 1 m 1,4,-1
 58 100 l 1,5,-1
 139 100 l 1,6,-1
 139 1 l 1,7,-1
 58 1 l 1,4,-1
EndSplineSet
EndChar

StartChar: semicolon
Encoding: 59 59 28
Width: 218
Flags: W
LayerCount: 2
Fore
SplineSet
154 52 m 2,0,1
 154 -5 154 -5 129.5 -40.5 c 128,-1,2
 105 -76 105 -76 63 -93 c 1,3,-1
 26 -25 l 1,4,5
 43 -17 43 -17 58.5 1.5 c 128,-1,6
 74 20 74 20 74 53 c 2,7,-1
 74 109 l 1,8,-1
 154 109 l 1,9,-1
 154 52 l 2,0,1
74 312 m 1,10,-1
 74 413 l 1,11,-1
 154 413 l 1,12,-1
 154 312 l 1,13,-1
 74 312 l 1,10,-1
EndSplineSet
EndChar

StartChar: less
Encoding: 60 60 29
Width: 487
Flags: W
LayerCount: 2
Fore
SplineSet
419 232 m 1,0,-1
 419 164 l 1,1,-1
 50 254 l 1,2,-1
 50 348 l 1,3,-1
 419 434 l 1,4,-1
 419 366 l 1,5,-1
 252 330 l 1,6,-1
 253 330 l 1,7,8
 238 326 238 326 217 322 c 128,-1,9
 196 318 196 318 176 313 c 0,10,11
 153 308 153 308 129 303 c 1,12,-1
 129 295 l 1,13,14
 134 294 134 294 145.5 291.5 c 128,-1,15
 157 289 157 289 173 285 c 1,16,-1
 172 285 l 1,17,18
 193 280 193 280 216 276 c 128,-1,19
 239 272 239 272 254 268 c 2,20,-1
 419 232 l 1,0,-1
EndSplineSet
EndChar

StartChar: equal
Encoding: 61 61 30
Width: 479
Flags: W
LayerCount: 2
Fore
SplineSet
66 360 m 1,0,-1
 66 436 l 1,1,-1
 413 436 l 1,2,-1
 413 360 l 1,3,-1
 66 360 l 1,0,-1
66 170 m 1,4,-1
 66 246 l 1,5,-1
 413 246 l 1,6,-1
 413 170 l 1,7,-1
 66 170 l 1,4,-1
EndSplineSet
EndChar

StartChar: greater
Encoding: 62 62 31
Width: 488
Flags: W
LayerCount: 2
Fore
SplineSet
234 273 m 1,0,-1
 233 273 l 1,1,2
 248 277 248 277 270.5 281 c 128,-1,3
 293 285 293 285 314 290 c 2,4,-1
 358 300 l 1,5,-1
 358 307 l 1,6,-1
 234 335 l 1,7,-1
 235 335 l 1,8,-1
 68 371 l 1,9,-1
 68 439 l 1,10,-1
 438 353 l 1,11,-1
 438 259 l 1,12,-1
 68 169 l 1,13,-1
 68 236 l 1,14,-1
 234 273 l 1,0,-1
EndSplineSet
EndChar

StartChar: question
Encoding: 63 63 32
Width: 428
Flags: W
LayerCount: 2
Fore
SplineSet
192 14 m 1,0,-1
 192 88 l 1,1,-1
 138 88 l 1,2,-1
 138 14 l 1,3,-1
 192 14 l 1,0,-1
390 531 m 0,4,5
 390 498 390 498 380.5 475 c 128,-1,6
 371 452 371 452 360 435 c 2,7,-1
 221 226 l 2,8,9
 212 212 212 212 205.5 197.5 c 128,-1,10
 199 183 199 183 199 163 c 2,11,-1
 199 136 l 1,12,-1
 129 136 l 1,13,-1
 129 162 l 2,14,15
 129 197 129 197 138 221 c 128,-1,16
 147 245 147 245 158 262 c 0,17,18
 190 311 190 311 224 361 c 128,-1,19
 258 411 258 411 290 460 c 0,20,21
 301 476 301 476 311 495 c 128,-1,22
 321 514 321 514 321 530 c 0,23,24
 321 554 321 554 309 573 c 128,-1,25
 297 592 297 592 279 605.5 c 128,-1,26
 261 619 261 619 240.5 626 c 128,-1,27
 220 633 220 633 204 633 c 0,28,29
 193 633 193 633 181 630 c 128,-1,30
 169 627 169 627 158 623 c 2,31,-1
 56 585 l 1,32,-1
 33 651 l 1,33,-1
 121 687 l 2,34,35
 138 694 138 694 162 699 c 128,-1,36
 186 704 186 704 203 704 c 0,37,38
 240 704 240 704 273.5 691.5 c 128,-1,39
 307 679 307 679 333 656 c 128,-1,40
 359 633 359 633 374.5 601.5 c 128,-1,41
 390 570 390 570 390 531 c 0,4,5
EndSplineSet
EndChar

StartChar: at
Encoding: 64 64 33
Width: 853
Flags: W
LayerCount: 2
Fore
SplineSet
814 397 m 0,0,1
 814 350 814 350 802.5 302 c 128,-1,2
 791 254 791 254 767.5 215 c 128,-1,3
 744 176 744 176 707.5 151 c 128,-1,4
 671 126 671 126 621 126 c 0,5,6
 589 126 589 126 565 144 c 128,-1,7
 541 162 541 162 531 193 c 1,8,9
 510 165 510 165 475.5 146.5 c 128,-1,10
 441 128 441 128 407 128 c 0,11,12
 368 128 368 128 338.5 142.5 c 128,-1,13
 309 157 309 157 288.5 181.5 c 128,-1,14
 268 206 268 206 258 238 c 128,-1,15
 248 270 248 270 248 306 c 0,16,17
 248 347 248 347 260.5 386.5 c 128,-1,18
 273 426 273 426 297 456.5 c 128,-1,19
 321 487 321 487 356 506 c 128,-1,20
 391 525 391 525 436 525 c 0,21,22
 467 525 467 525 495 512.5 c 128,-1,23
 523 500 523 500 540 474 c 1,24,-1
 550 517 l 1,25,-1
 599 517 l 1,26,-1
 579 253 l 1,27,-1
 579 244 l 2,28,29
 579 216 579 216 591 199 c 128,-1,30
 603 182 603 182 626 182 c 0,31,32
 657 182 657 182 681 200.5 c 128,-1,33
 705 219 705 219 721.5 249.5 c 128,-1,34
 738 280 738 280 746 318.5 c 128,-1,35
 754 357 754 357 754 397 c 0,36,37
 754 464 754 464 730 516 c 128,-1,38
 706 568 706 568 664.5 604 c 128,-1,39
 623 640 623 640 567.5 658.5 c 128,-1,40
 512 677 512 677 448 677 c 0,41,42
 369 677 369 677 305.5 651 c 128,-1,43
 242 625 242 625 197 578 c 128,-1,44
 152 531 152 531 128 466.5 c 128,-1,45
 104 402 104 402 104 324 c 0,46,47
 104 255 104 255 127 194.5 c 128,-1,48
 150 134 150 134 192 88.5 c 128,-1,49
 234 43 234 43 292 17 c 128,-1,50
 350 -9 350 -9 421 -9 c 0,51,52
 486 -9 486 -9 548.5 3 c 128,-1,53
 611 15 611 15 674 42 c 1,54,-1
 674 -18 l 1,55,56
 608 -46 608 -46 547.5 -56.5 c 128,-1,57
 487 -67 487 -67 419 -67 c 0,58,59
 335 -67 335 -67 265.5 -36.5 c 128,-1,60
 196 -6 196 -6 146.5 46.5 c 128,-1,61
 97 99 97 99 70 170.5 c 128,-1,62
 43 242 43 242 43 324 c 0,63,64
 43 415 43 415 72 490.5 c 128,-1,65
 101 566 101 566 154 620.5 c 128,-1,66
 207 675 207 675 281.5 705 c 128,-1,67
 356 735 356 735 448 735 c 0,68,69
 524 735 524 735 591 712 c 128,-1,70
 658 689 658 689 707.5 645.5 c 128,-1,71
 757 602 757 602 785.5 539 c 128,-1,72
 814 476 814 476 814 397 c 0,0,1
528 347 m 0,73,74
 528 371 528 371 523 393 c 128,-1,75
 518 415 518 415 506 432.5 c 128,-1,76
 494 450 494 450 475 460 c 128,-1,77
 456 470 456 470 429 470 c 0,78,79
 400 470 400 470 377.5 455 c 128,-1,80
 355 440 355 440 340 416.5 c 128,-1,81
 325 393 325 393 317 364 c 128,-1,82
 309 335 309 335 309 306 c 0,83,84
 309 254 309 254 333.5 218.5 c 128,-1,85
 358 183 358 183 409 183 c 0,86,87
 441 183 441 183 463.5 198.5 c 128,-1,88
 486 214 486 214 500.5 238 c 128,-1,89
 515 262 515 262 521.5 291 c 128,-1,90
 528 320 528 320 528 347 c 0,73,74
EndSplineSet
EndChar

StartChar: A
Encoding: 65 65 34
Width: 463
Flags: W
LayerCount: 2
Fore
SplineSet
233 623 m 1,0,-1
 232 623 l 1,1,2
 212 532 212 532 192.5 443.5 c 128,-1,3
 173 355 173 355 153 264 c 1,4,-1
 310 264 l 1,5,-1
 233 623 l 1,0,-1
92 1 m 1,6,-1
 24 1 l 1,7,-1
 184 701 l 1,8,-1
 279 701 l 1,9,-1
 439 1 l 1,10,-1
 372 1 l 1,11,-1
 328 192 l 1,12,-1
 135 192 l 1,13,-1
 92 1 l 1,6,-1
EndSplineSet
EndChar

StartChar: B
Encoding: 66 66 35
Width: 476
Flags: W
LayerCount: 2
Fore
SplineSet
144 321 m 1,0,-1
 144 71 l 1,1,-1
 261 71 l 2,2,3
 288 71 288 71 306.5 80.5 c 128,-1,4
 325 90 325 90 336 106.5 c 128,-1,5
 347 123 347 123 351.5 145.5 c 128,-1,6
 356 168 356 168 356 193 c 0,7,8
 356 219 356 219 351.5 242.5 c 128,-1,9
 347 266 347 266 336 283.5 c 128,-1,10
 325 301 325 301 306.5 311 c 128,-1,11
 288 321 288 321 261 321 c 2,12,-1
 144 321 l 1,0,-1
333 514 m 1,13,14
 331 538 331 538 324.5 560.5 c 128,-1,15
 318 583 318 583 305.5 600.5 c 128,-1,16
 293 618 293 618 275 628.5 c 128,-1,17
 257 639 257 639 233 639 c 0,18,19
 223 639 223 639 202.5 636 c 128,-1,20
 182 633 182 633 144 617 c 1,21,-1
 144 391 l 1,22,-1
 238 391 l 2,23,24
 266 391 266 391 284 401 c 128,-1,25
 302 411 302 411 313 427.5 c 128,-1,26
 324 444 324 444 328.5 466.5 c 128,-1,27
 333 489 333 489 333 514 c 1,13,14
241 710 m 0,28,29
 274 710 274 710 291.5 702.5 c 128,-1,30
 309 695 309 695 316 690 c 0,31,32
 317 689 317 689 317 689 c 1,33,34
 353 667 353 667 380 621.5 c 128,-1,35
 407 576 407 576 407 518 c 0,36,37
 407 496 407 496 405.5 474.5 c 128,-1,38
 404 453 404 453 398 432.5 c 128,-1,39
 392 412 392 412 380.5 392.5 c 128,-1,40
 369 373 369 373 349 356 c 1,41,42
 375 338 375 338 390.5 319 c 128,-1,43
 406 300 406 300 414 280 c 128,-1,44
 422 260 422 260 424.5 238.5 c 128,-1,45
 427 217 427 217 427 193 c 0,46,47
 428 162 428 162 421.5 136 c 128,-1,48
 415 110 415 110 406 90.5 c 128,-1,49
 397 71 397 71 388 59 c 128,-1,50
 379 47 379 47 375 44 c 0,51,52
 357 27 357 27 330 13.5 c 128,-1,53
 303 0 303 0 261 0 c 2,54,-1
 75 0 l 1,55,-1
 75 670 l 1,56,57
 114 685 114 685 144 693.5 c 128,-1,58
 174 702 174 702 186 704 c 0,59,60
 213 710 213 710 241 710 c 0,28,29
EndSplineSet
EndChar

StartChar: C
Encoding: 67 67 36
Width: 441
Flags: W
LayerCount: 2
Fore
SplineSet
130 191 m 2,0,1
 130 161 130 161 140 137 c 128,-1,2
 150 113 150 113 167 96 c 128,-1,3
 184 79 184 79 206.5 69.5 c 128,-1,4
 229 60 229 60 253 59 c 0,5,6
 260 59 260 59 267 60 c 128,-1,7
 274 61 274 61 284.5 64.5 c 128,-1,8
 295 68 295 68 311 74 c 128,-1,9
 327 80 327 80 352 90 c 2,10,-1
 384 104 l 1,11,-1
 411 35 l 1,12,-1
 324 4 l 2,13,14
 307 -2 307 -2 287 -6 c 128,-1,15
 267 -10 267 -10 253 -10 c 0,16,17
 215 -10 215 -10 180.5 3.5 c 128,-1,18
 146 17 146 17 120 42.5 c 128,-1,19
 94 68 94 68 79 104.5 c 128,-1,20
 64 141 64 141 64 186 c 2,21,-1
 64 503 l 2,22,23
 64 544 64 544 79 581.5 c 128,-1,24
 94 619 94 619 112 639 c 0,25,26
 128 658 128 658 140.5 668 c 128,-1,27
 153 678 153 678 166 686 c 1,28,-1
 171 688 l 1,29,-1
 168 687 l 1,30,31
 179 693 179 693 199.5 701.5 c 128,-1,32
 220 710 220 710 255 710 c 0,33,34
 270 710 270 710 290 705 c 128,-1,35
 310 700 310 700 325 695 c 2,36,-1
 409 663 l 1,37,-1
 386 598 l 1,38,-1
 294 633 l 2,39,40
 284 637 284 637 274 640 c 128,-1,41
 264 643 264 643 256 643 c 0,42,43
 231 643 231 643 208.5 631 c 128,-1,44
 186 619 186 619 169 599.5 c 128,-1,45
 152 580 152 580 142 555 c 128,-1,46
 132 530 132 530 132 503 c 2,47,-1
 130 191 l 2,0,1
EndSplineSet
EndChar

StartChar: D
Encoding: 68 68 37
Width: 477
Flags: W
LayerCount: 2
Fore
SplineSet
69 669 m 1,0,1
 132 695 132 695 173 702.5 c 128,-1,2
 214 710 214 710 228 710 c 0,3,4
 268 710 268 710 301.5 693.5 c 128,-1,5
 335 677 335 677 360 648.5 c 128,-1,6
 385 620 385 620 399 583 c 128,-1,7
 413 546 413 546 413 504 c 2,8,-1
 413 188 l 2,9,10
 413 146 413 146 397 109.5 c 128,-1,11
 381 73 381 73 354 46.5 c 128,-1,12
 327 20 327 20 291.5 5 c 128,-1,13
 256 -10 256 -10 217 -10 c 0,14,15
 209 -10 209 -10 198 -9 c 128,-1,16
 187 -8 187 -8 169.5 -4.5 c 128,-1,17
 152 -1 152 -1 127.5 6.5 c 128,-1,18
 103 14 103 14 69 28 c 1,19,-1
 69 669 l 1,0,1
340 504 m 2,20,21
 340 546 340 546 321 577.5 c 128,-1,22
 302 609 302 609 280 624 c 0,23,24
 269 632 269 632 254 635.5 c 128,-1,25
 239 639 239 639 228 639 c 0,26,27
 207 639 207 639 182.5 630.5 c 128,-1,28
 158 622 158 622 137 613 c 1,29,-1
 137 82 l 1,30,31
 172 68 172 68 191.5 65 c 128,-1,32
 211 62 211 62 221 62 c 2,33,-1
 225 62 l 2,34,35
 248 62 248 62 269 73 c 128,-1,36
 290 84 290 84 306.5 103 c 128,-1,37
 323 122 323 122 332.5 146 c 128,-1,38
 342 170 342 170 342 197 c 2,39,-1
 340 504 l 2,20,21
EndSplineSet
EndChar

StartChar: E
Encoding: 69 69 38
Width: 410
Flags: W
LayerCount: 2
Fore
SplineSet
366 700 m 1,0,-1
 366 630 l 1,1,-1
 145 630 l 1,2,-1
 145 387 l 1,3,-1
 318 387 l 1,4,-1
 318 317 l 1,5,-1
 145 317 l 1,6,-1
 145 72 l 1,7,-1
 368 72 l 1,8,-1
 368 1 l 1,9,-1
 76 1 l 1,10,-1
 76 700 l 1,11,-1
 366 700 l 1,0,-1
EndSplineSet
EndChar

StartChar: F
Encoding: 70 70 39
Width: 391
Flags: W
LayerCount: 2
Fore
SplineSet
366 700 m 1,0,-1
 366 630 l 1,1,-1
 145 630 l 1,2,-1
 145 386 l 1,3,-1
 318 386 l 1,4,-1
 318 317 l 1,5,-1
 145 317 l 1,6,-1
 145 0 l 1,7,-1
 76 0 l 1,8,-1
 76 700 l 1,9,-1
 366 700 l 1,0,-1
EndSplineSet
EndChar

StartChar: G
Encoding: 71 71 40
Width: 449
Flags: W
LayerCount: 2
Fore
SplineSet
133 180 m 2,0,1
 133 154 133 154 143 132 c 128,-1,2
 153 110 153 110 169.5 93 c 128,-1,3
 186 76 186 76 207.5 66.5 c 128,-1,4
 229 57 229 57 253 57 c 0,5,6
 263 57 263 57 279.5 60.5 c 128,-1,7
 296 64 296 64 329 81 c 1,8,-1
 329 270 l 1,9,-1
 398 270 l 1,10,-1
 398 38 l 1,11,12
 339 6 339 6 301.5 -2 c 128,-1,13
 264 -10 264 -10 250 -10 c 0,14,15
 209 -10 209 -10 175 6.5 c 128,-1,16
 141 23 141 23 116 50.5 c 128,-1,17
 91 78 91 78 77.5 115 c 128,-1,18
 64 152 64 152 64 194 c 2,19,-1
 64 506 l 1,20,21
 68 601 68 601 118.5 655.5 c 128,-1,22
 169 710 169 710 252 710 c 1,23,24
 267 709 267 709 287 705 c 128,-1,25
 307 701 307 701 323 695 c 2,26,-1
 391 669 l 1,27,-1
 367 599 l 1,28,-1
 291 628 l 1,29,30
 268 638 268 638 252 638 c 0,31,32
 228 638 228 638 206 627 c 128,-1,33
 184 616 184 616 168 598 c 128,-1,34
 152 580 152 580 142.5 556 c 128,-1,35
 133 532 133 532 133 506 c 2,36,-1
 133 180 l 2,0,1
EndSplineSet
EndChar

StartChar: H
Encoding: 72 72 41
Width: 516
Flags: W
LayerCount: 2
Fore
SplineSet
145 700 m 1,0,-1
 145 389 l 1,1,-1
 370 389 l 1,2,-1
 370 700 l 1,3,-1
 440 700 l 1,4,-1
 440 1 l 1,5,-1
 370 1 l 1,6,-1
 370 318 l 1,7,-1
 145 318 l 1,8,-1
 145 1 l 1,9,-1
 76 1 l 1,10,-1
 76 700 l 1,11,-1
 145 700 l 1,0,-1
EndSplineSet
EndChar

StartChar: I
Encoding: 73 73 42
Width: 217
Flags: W
LayerCount: 2
Fore
SplineSet
76 700 m 1,0,-1
 141 700 l 1,1,-1
 141 0 l 1,2,-1
 76 0 l 1,3,-1
 76 700 l 1,0,-1
EndSplineSet
EndChar

StartChar: J
Encoding: 74 74 43
Width: 312
Flags: W
LayerCount: 2
Fore
SplineSet
236 140 m 1,0,1
 236 97 236 97 231.5 68 c 128,-1,2
 227 39 227 39 213.5 22 c 128,-1,3
 200 5 200 5 176 -2.5 c 128,-1,4
 152 -10 152 -10 113 -10 c 0,5,6
 109 -10 109 -10 96 -9 c 128,-1,7
 83 -8 83 -8 67.5 -6.5 c 128,-1,8
 52 -5 52 -5 37 -3 c 128,-1,9
 22 -1 22 -1 14 1 c 1,10,-1
 27 73 l 1,11,12
 32 71 32 71 45 69.5 c 128,-1,13
 58 68 58 68 72 66.5 c 128,-1,14
 86 65 86 65 97 64 c 128,-1,15
 108 63 108 63 110 63 c 0,16,17
 121 63 121 63 131.5 65.5 c 128,-1,18
 142 68 142 68 150 75.5 c 128,-1,19
 158 83 158 83 163 96.5 c 128,-1,20
 168 110 168 110 168 133 c 2,21,-1
 168 700 l 1,22,-1
 236 700 l 1,23,-1
 236 140 l 1,24,-1
 236 140 l 1,0,1
EndSplineSet
EndChar

StartChar: K
Encoding: 75 75 44
Width: 396
Flags: W
LayerCount: 2
Fore
SplineSet
299 0 m 1,0,-1
 161 313 l 1,1,-1
 144 313 l 1,2,-1
 144 0 l 1,3,-1
 76 0 l 1,4,-1
 76 700 l 1,5,-1
 144 700 l 1,6,-1
 144 385 l 1,7,-1
 160 385 l 1,8,9
 195 463 195 463 230.5 541.5 c 128,-1,10
 266 620 266 620 301 698 c 1,11,-1
 376 698 l 1,12,-1
 223 348 l 1,13,-1
 374 0 l 1,14,-1
 299 0 l 1,0,-1
EndSplineSet
EndChar

StartChar: L
Encoding: 76 76 45
Width: 380
Flags: W
LayerCount: 2
Fore
SplineSet
76 700 m 1,0,-1
 145 700 l 1,1,-1
 145 69 l 1,2,-1
 363 69 l 1,3,-1
 363 0 l 1,4,-1
 76 0 l 1,5,-1
 76 700 l 1,0,-1
EndSplineSet
EndChar

StartChar: M
Encoding: 77 77 46
Width: 609
Flags: W
LayerCount: 2
Fore
SplineSet
306 274 m 1,0,-1
 436 700 l 1,1,-1
 533 700 l 1,2,-1
 533 0 l 1,3,-1
 467 0 l 1,4,-1
 467 571 l 1,5,-1
 466 571 l 1,6,-1
 351 202 l 1,7,-1
 256 202 l 1,8,-1
 142 569 l 1,9,-1
 142 0 l 1,10,-1
 76 0 l 1,11,-1
 76 700 l 1,12,-1
 174 700 l 1,13,-1
 302 274 l 1,14,-1
 306 274 l 1,0,-1
EndSplineSet
EndChar

StartChar: N
Encoding: 78 78 47
Width: 556
Flags: W
LayerCount: 2
Fore
SplineSet
480 700 m 1,0,-1
 480 0 l 1,1,-1
 374 0 l 1,2,-1
 141 571 l 1,3,-1
 140 571 l 1,4,-1
 140 0 l 1,5,-1
 76 0 l 1,6,-1
 76 700 l 1,7,-1
 158 700 l 1,8,-1
 413 81 l 1,9,-1
 415 81 l 1,10,-1
 415 700 l 1,11,-1
 480 700 l 1,0,-1
EndSplineSet
EndChar

StartChar: O
Encoding: 79 79 48
Width: 520
Flags: W
LayerCount: 2
Fore
SplineSet
388 520 m 2,0,1
 388 557 388 557 374 579.5 c 128,-1,2
 360 602 360 602 339.5 614.5 c 128,-1,3
 319 627 319 627 297 631 c 128,-1,4
 275 635 275 635 260 635 c 256,5,6
 245 635 245 635 223 630.5 c 128,-1,7
 201 626 201 626 181 613.5 c 128,-1,8
 161 601 161 601 146.5 578.5 c 128,-1,9
 132 556 132 556 132 519 c 2,10,-1
 132 175 l 2,11,12
 132 137 132 137 146.5 115.5 c 128,-1,13
 161 94 161 94 181 82.5 c 128,-1,14
 201 71 201 71 223 68 c 128,-1,15
 245 65 245 65 260 65 c 256,16,17
 275 65 275 65 297 68.5 c 128,-1,18
 319 72 319 72 339.5 83.5 c 128,-1,19
 360 95 360 95 374 116.5 c 128,-1,20
 388 138 388 138 388 175 c 2,21,-1
 388 520 l 2,0,1
455 175 m 2,22,23
 455 153 455 153 446.5 121.5 c 128,-1,24
 438 90 438 90 415.5 61 c 128,-1,25
 393 32 393 32 355 11.5 c 128,-1,26
 317 -9 317 -9 259 -9 c 0,27,28
 202 -9 202 -9 165 11.5 c 128,-1,29
 128 32 128 32 105.5 61 c 128,-1,30
 83 90 83 90 74 121.5 c 128,-1,31
 65 153 65 153 65 175 c 2,32,-1
 65 519 l 2,33,34
 65 541 65 541 73.5 573.5 c 128,-1,35
 82 606 82 606 104 636 c 128,-1,36
 126 666 126 666 164 687.5 c 128,-1,37
 202 709 202 709 260 709 c 0,38,39
 317 709 317 709 354.5 688 c 128,-1,40
 392 667 392 667 414.5 637 c 128,-1,41
 437 607 437 607 446 574.5 c 128,-1,42
 455 542 455 542 455 520 c 2,43,-1
 455 175 l 2,22,23
EndSplineSet
EndChar

StartChar: P
Encoding: 80 80 49
Width: 493
Flags: W
LayerCount: 2
Fore
SplineSet
244 639 m 0,0,1
 228 639 228 639 210 635.5 c 128,-1,2
 192 632 192 632 177 627 c 0,3,4
 159 622 159 622 142 616 c 1,5,-1
 142 351 l 1,6,-1
 244 351 l 2,7,8
 312 351 312 351 353 388.5 c 128,-1,9
 394 426 394 426 394 500 c 0,10,11
 394 573 394 573 352 606 c 128,-1,12
 310 639 310 639 244 639 c 0,0,1
252 710 m 0,13,14
 294 710 294 710 332 695 c 128,-1,15
 370 680 370 680 399 652.5 c 128,-1,16
 428 625 428 625 445.5 586.5 c 128,-1,17
 463 548 463 548 463 500 c 256,18,19
 463 452 463 452 447 411.5 c 128,-1,20
 431 371 431 371 402.5 341.5 c 128,-1,21
 374 312 374 312 335 296 c 128,-1,22
 296 280 296 280 251 280 c 2,23,-1
 141 280 l 1,24,-1
 141 0 l 1,25,-1
 75 0 l 1,26,-1
 75 669 l 1,27,28
 102 680 102 680 132 689 c 0,29,30
 158 697 158 697 189 703.5 c 128,-1,31
 220 710 220 710 252 710 c 0,13,14
EndSplineSet
EndChar

StartChar: Q
Encoding: 81 81 50
Width: 519
Flags: W
LayerCount: 2
Fore
SplineSet
386 518 m 2,0,1
 386 555 386 555 372 578 c 128,-1,2
 358 601 358 601 338 614.5 c 128,-1,3
 318 628 318 628 296.5 633 c 128,-1,4
 275 638 275 638 260 638 c 256,5,6
 245 638 245 638 223.5 633 c 128,-1,7
 202 628 202 628 182 615 c 128,-1,8
 162 602 162 602 148 579 c 128,-1,9
 134 556 134 556 134 519 c 2,10,-1
 134 175 l 2,11,12
 134 137 134 137 148 115.5 c 128,-1,13
 162 94 162 94 182 82.5 c 128,-1,14
 202 71 202 71 223.5 68 c 128,-1,15
 245 65 245 65 260 65 c 256,16,17
 275 65 275 65 296.5 68 c 128,-1,18
 318 71 318 71 338 82.5 c 128,-1,19
 358 94 358 94 372 115.5 c 128,-1,20
 386 137 386 137 386 175 c 2,21,-1
 386 518 l 2,0,1
455 175 m 2,22,23
 455 156 455 156 447.5 129.5 c 128,-1,24
 440 103 440 103 423.5 77 c 128,-1,25
 407 51 407 51 380.5 29 c 128,-1,26
 354 7 354 7 315 -3 c 1,27,28
 325 -19 325 -19 346 -28 c 1,29,-1
 327 -101 l 1,30,31
 295 -87 295 -87 271.5 -64 c 128,-1,32
 248 -41 248 -41 238 -8 c 1,33,34
 188 -3 188 -3 155 18.5 c 128,-1,35
 122 40 122 40 102 67.5 c 128,-1,36
 82 95 82 95 73.5 124.5 c 128,-1,37
 65 154 65 154 65 175 c 2,38,-1
 65 518 l 2,39,40
 65 540 65 540 73.5 572.5 c 128,-1,41
 82 605 82 605 104 635.5 c 128,-1,42
 126 666 126 666 164 687.5 c 128,-1,43
 202 709 202 709 260 709 c 0,44,45
 317 709 317 709 354.5 687.5 c 128,-1,46
 392 666 392 666 414.5 635.5 c 128,-1,47
 437 605 437 605 446 572.5 c 128,-1,48
 455 540 455 540 455 518 c 2,49,-1
 455 175 l 2,22,23
EndSplineSet
EndChar

StartChar: R
Encoding: 82 82 51
Width: 506
Flags: W
LayerCount: 2
Fore
SplineSet
244 639 m 0,0,1
 228 639 228 639 210 635.5 c 128,-1,2
 192 632 192 632 177 628 c 0,3,4
 159 623 159 623 142 617 c 1,5,-1
 142 352 l 1,6,-1
 244 352 l 2,7,8
 312 352 312 352 353 392 c 128,-1,9
 394 432 394 432 394 507 c 0,10,11
 394 543 394 543 383 568.5 c 128,-1,12
 372 594 372 594 352 609.5 c 128,-1,13
 332 625 332 625 304.5 632 c 128,-1,14
 277 639 277 639 244 639 c 0,0,1
475 0 m 1,15,-1
 407 0 l 1,16,-1
 285 283 l 1,17,18
 277 282 277 282 268 281.5 c 128,-1,19
 259 281 259 281 251 281 c 2,20,-1
 141 281 l 1,21,-1
 141 0 l 1,22,-1
 75 0 l 1,23,-1
 75 669 l 1,24,25
 103 680 103 680 133 689 c 0,26,27
 159 697 159 697 190 703.5 c 128,-1,28
 221 710 221 710 252 710 c 0,29,30
 294 710 294 710 332 696.5 c 128,-1,31
 370 683 370 683 399 656.5 c 128,-1,32
 428 630 428 630 445.5 592.5 c 128,-1,33
 463 555 463 555 463 507 c 0,34,35
 463 474 463 474 455 442.5 c 128,-1,36
 447 411 447 411 432.5 383.5 c 128,-1,37
 418 356 418 356 397.5 335 c 128,-1,38
 377 314 377 314 353 302 c 1,39,-1
 475 0 l 1,15,-1
EndSplineSet
EndChar

StartChar: S
Encoding: 83 83 52
Width: 467
Flags: W
LayerCount: 2
Fore
SplineSet
443 208 m 256,0,1
 443 166 443 166 428 128 c 128,-1,2
 413 90 413 90 387 62 c 128,-1,3
 361 34 361 34 326 17.5 c 128,-1,4
 291 1 291 1 250 1 c 0,5,6
 211 1 211 1 173 11.5 c 128,-1,7
 135 22 135 22 105 35 c 0,8,9
 70 50 70 50 39 69 c 1,10,-1
 63 135 l 1,11,12
 98 117 98 117 131 104 c 0,13,14
 160 92 160 92 192 82.5 c 128,-1,15
 224 73 224 73 249 73 c 0,16,17
 275 73 275 73 298 83.5 c 128,-1,18
 321 94 321 94 337.5 112 c 128,-1,19
 354 130 354 130 363.5 154 c 128,-1,20
 373 178 373 178 373 206 c 256,21,22
 373 234 373 234 360 253 c 128,-1,23
 347 272 347 272 326.5 284.5 c 128,-1,24
 306 297 306 297 281.5 304 c 128,-1,25
 257 311 257 311 234 315 c 0,26,27
 196 321 196 321 163 336.5 c 128,-1,28
 130 352 130 352 105.5 376 c 128,-1,29
 81 400 81 400 66.5 432.5 c 128,-1,30
 52 465 52 465 52 506 c 0,31,32
 52 548 52 548 67 585 c 128,-1,33
 82 622 82 622 108 649.5 c 128,-1,34
 134 677 134 677 168.5 693.5 c 128,-1,35
 203 710 203 710 242 710 c 0,36,37
 266 710 266 710 292 704.5 c 128,-1,38
 318 699 318 699 341 692 c 0,39,40
 367 684 367 684 393 674 c 1,41,-1
 371 606 l 1,42,43
 348 615 348 615 325 622 c 0,44,45
 305 628 305 628 282.5 633.5 c 128,-1,46
 260 639 260 639 240 639 c 0,47,48
 215 639 215 639 193 628 c 128,-1,49
 171 617 171 617 155 599 c 128,-1,50
 139 581 139 581 130 557.5 c 128,-1,51
 121 534 121 534 121 509 c 0,52,53
 121 480 121 480 133 458.5 c 128,-1,54
 145 437 145 437 163.5 422 c 128,-1,55
 182 407 182 407 204 398 c 128,-1,56
 226 389 226 389 246 385 c 0,57,58
 287 378 287 378 323 365 c 128,-1,59
 359 352 359 352 385.5 331 c 128,-1,60
 412 310 412 310 427.5 280 c 128,-1,61
 443 250 443 250 443 208 c 256,0,1
EndSplineSet
EndChar

StartChar: T
Encoding: 84 84 53
Width: 422
Flags: W
LayerCount: 2
Fore
SplineSet
404 633 m 1,0,-1
 247 633 l 1,1,-1
 247 0 l 1,2,-1
 180 0 l 1,3,-1
 180 633 l 1,4,-1
 18 633 l 1,5,-1
 18 700 l 1,6,-1
 404 700 l 1,7,-1
 404 633 l 1,0,-1
EndSplineSet
EndChar

StartChar: U
Encoding: 85 85 54
Width: 534
Flags: W
LayerCount: 2
Fore
SplineSet
267 56 m 0,0,1
 284 56 284 56 306.5 61 c 128,-1,2
 329 66 329 66 349 79.5 c 128,-1,3
 369 93 369 93 382.5 116 c 128,-1,4
 396 139 396 139 396 176 c 2,5,-1
 396 701 l 1,6,-1
 460 701 l 1,7,-1
 460 176 l 2,8,9
 460 147 460 147 451 114.5 c 128,-1,10
 442 82 442 82 420 55 c 128,-1,11
 398 28 398 28 360.5 10.5 c 128,-1,12
 323 -7 323 -7 267 -7 c 256,13,14
 211 -7 211 -7 174 10.5 c 128,-1,15
 137 28 137 28 114.5 55 c 128,-1,16
 92 82 92 82 83 114.5 c 128,-1,17
 74 147 74 147 74 176 c 2,18,-1
 74 701 l 1,19,-1
 139 701 l 1,20,-1
 139 176 l 2,21,22
 139 139 139 139 152 116 c 128,-1,23
 165 93 165 93 184 79.5 c 128,-1,24
 203 66 203 66 225.5 61 c 128,-1,25
 248 56 248 56 267 56 c 0,0,1
EndSplineSet
EndChar

StartChar: V
Encoding: 86 86 55
Width: 459
Flags: W
LayerCount: 2
Fore
SplineSet
437 700 m 1,0,-1
 276 0 l 1,1,-1
 181 0 l 1,2,-1
 24 700 l 1,3,-1
 92 700 l 1,4,-1
 229 78 l 1,5,-1
 231 78 l 1,6,7
 233 88 233 88 240 120.5 c 128,-1,8
 247 153 247 153 257 198.5 c 128,-1,9
 267 244 267 244 279.5 299 c 128,-1,10
 292 354 292 354 304 410 c 0,11,12
 333 540 333 540 368 700 c 1,13,-1
 437 700 l 1,0,-1
EndSplineSet
EndChar

StartChar: W
Encoding: 87 87 56
Width: 609
Flags: W
LayerCount: 2
Fore
SplineSet
305 347 m 1,0,-1
 229 1 l 1,1,-1
 133 1 l 1,2,-1
 31 700 l 1,3,-1
 96 700 l 1,4,-1
 182 78 l 1,5,-1
 262 432 l 1,6,-1
 348 432 l 1,7,-1
 423 78 l 1,8,-1
 513 700 l 1,9,-1
 577 700 l 1,10,-1
 476 1 l 1,11,-1
 379 1 l 1,12,-1
 305 347 l 1,0,-1
EndSplineSet
EndChar

StartChar: X
Encoding: 88 88 57
Width: 449
Flags: W
LayerCount: 2
Fore
SplineSet
221 312 m 1,0,-1
 90 0 l 1,1,-1
 22 0 l 1,2,-1
 168 347 l 1,3,-1
 22 700 l 1,4,-1
 90 700 l 1,5,-1
 225 384 l 1,6,-1
 225 384 l 1,7,-1
 360 700 l 1,8,-1
 428 700 l 1,9,-1
 282 347 l 1,10,-1
 427 0 l 1,11,-1
 358 0 l 1,12,-1
 227 312 l 1,13,-1
 221 312 l 1,0,-1
EndSplineSet
EndChar

StartChar: Y
Encoding: 89 89 58
Width: 430
Flags: W
LayerCount: 2
Fore
SplineSet
258 312 m 1,0,-1
 247 312 l 1,1,-1
 247 0 l 1,2,-1
 182 0 l 1,3,-1
 182 312 l 1,4,-1
 174 312 l 1,5,-1
 12 700 l 1,6,-1
 80 700 l 1,7,-1
 215 384 l 1,8,-1
 215 384 l 1,9,-1
 350 700 l 1,10,-1
 418 700 l 1,11,-1
 258 312 l 1,0,-1
EndSplineSet
EndChar

StartChar: Z
Encoding: 90 90 59
Width: 458
Flags: W
LayerCount: 2
Fore
SplineSet
325 628 m 1,0,-1
 325 628 l 1,1,-1
 54 628 l 1,2,-1
 54 700 l 1,3,-1
 411 700 l 1,4,-1
 411 635 l 1,5,-1
 118 72 l 1,6,-1
 118 72 l 1,7,-1
 427 72 l 1,8,-1
 427 0 l 1,9,-1
 32 0 l 1,10,-1
 32 73 l 1,11,-1
 325 628 l 1,0,-1
EndSplineSet
EndChar

StartChar: bracketleft
Encoding: 91 91 60
Width: 242
Flags: W
LayerCount: 2
Fore
SplineSet
63 -82 m 1,0,-1
 63 769 l 1,1,-1
 212 769 l 1,2,-1
 212 708 l 1,3,-1
 125 708 l 1,4,-1
 125 -20 l 1,5,-1
 212 -20 l 1,6,-1
 212 -82 l 1,7,-1
 63 -82 l 1,0,-1
EndSplineSet
EndChar

StartChar: backslash
Encoding: 92 92 61
Width: 390
Flags: W
LayerCount: 2
Fore
SplineSet
296 -55 m 1,0,-1
 28 761 l 1,1,-1
 95 761 l 1,2,-1
 362 -55 l 1,3,-1
 296 -55 l 1,0,-1
EndSplineSet
EndChar

StartChar: bracketright
Encoding: 93 93 62
Width: 242
Flags: W
LayerCount: 2
Fore
SplineSet
30 -83 m 1,0,-1
 30 -21 l 1,1,-1
 117 -21 l 1,2,-1
 117 707 l 1,3,-1
 30 707 l 1,4,-1
 30 768 l 1,5,-1
 179 768 l 1,6,-1
 179 -83 l 1,7,-1
 30 -83 l 1,0,-1
EndSplineSet
EndChar

StartChar: grave
Encoding: 96 96 64
Width: 364
Flags: W
LayerCount: 2
Fore
SplineSet
199 573 m 1,0,-1
 86 730 l 1,1,-1
 163 730 l 1,2,-1
 266 573 l 1,3,-1
 199 573 l 1,0,-1
EndSplineSet
EndChar

StartChar: a
Encoding: 97 97 65
Width: 403
Flags: W
LayerCount: 2
Fore
SplineSet
284 243 m 2,0,1
 284 244 284 244 275.5 248.5 c 128,-1,2
 267 253 267 253 253 258 c 128,-1,3
 239 263 239 263 220 267 c 128,-1,4
 201 271 201 271 180 271 c 0,5,6
 149 271 149 271 127.5 248 c 128,-1,7
 106 225 106 225 106 194 c 2,8,-1
 106 132 l 2,9,10
 106 100 106 100 127.5 77.5 c 128,-1,11
 149 55 149 55 179 55 c 0,12,13
 190 55 190 55 208 60 c 128,-1,14
 226 65 226 65 243 71 c 0,15,16
 262 78 262 78 284 88 c 1,17,-1
 284 243 l 2,0,1
347 57 m 1,18,-1
 369 37 l 1,19,-1
 324 -8 l 1,20,-1
 297 19 l 1,21,22
 266 4 266 4 232 -3 c 128,-1,23
 198 -10 198 -10 180 -10 c 0,24,25
 151 -10 151 -10 126 1.5 c 128,-1,26
 101 13 101 13 83 33 c 128,-1,27
 65 53 65 53 54.5 79.5 c 128,-1,28
 44 106 44 106 44 136 c 2,29,-1
 44 191 l 2,30,31
 44 220 44 220 54.5 246 c 128,-1,32
 65 272 65 272 83 291.5 c 128,-1,33
 101 311 101 311 126 322.5 c 128,-1,34
 151 334 151 334 180 334 c 0,35,36
 186 334 186 334 198.5 333.5 c 128,-1,37
 211 333 211 333 226 330.5 c 128,-1,38
 241 328 241 328 256.5 323.5 c 128,-1,39
 272 319 272 319 285 312 c 1,40,-1
 285 333 l 2,41,42
 285 354 285 354 277.5 375 c 128,-1,43
 270 396 270 396 257 412 c 128,-1,44
 244 428 244 428 226.5 438 c 128,-1,45
 209 448 209 448 190 448 c 0,46,47
 183 448 183 448 162.5 443 c 128,-1,48
 142 438 142 438 119 433 c 1,49,50
 93 426 93 426 61 418 c 1,51,-1
 44 478 l 1,52,53
 77 487 77 487 106 494 c 0,54,55
 131 500 131 500 155 505 c 128,-1,56
 179 510 179 510 190 510 c 0,57,58
 222 510 222 510 250.5 495 c 128,-1,59
 279 480 279 480 300 455 c 128,-1,60
 321 430 321 430 333.5 398.5 c 128,-1,61
 346 367 346 367 346 333 c 2,62,-1
 347 57 l 1,18,-1
EndSplineSet
EndChar

StartChar: b
Encoding: 98 98 66
Width: 418
Flags: W
LayerCount: 2
Fore
SplineSet
125 86 m 1,0,1
 128 79 128 79 142 73 c 128,-1,2
 156 67 156 67 172.5 63 c 128,-1,3
 189 59 189 59 205 57 c 128,-1,4
 221 55 221 55 230 55 c 0,5,6
 260 55 260 55 281.5 77.5 c 128,-1,7
 303 100 303 100 303 132 c 2,8,-1
 303 369 l 2,9,10
 303 401 303 401 281.5 423.5 c 128,-1,11
 260 446 260 446 229 446 c 0,12,13
 221 446 221 446 208 444 c 128,-1,14
 195 442 195 442 180.5 438.5 c 128,-1,15
 166 435 166 435 151 429 c 128,-1,16
 136 423 136 423 125 416 c 1,17,-1
 125 86 l 1,0,1
124 486 m 1,18,19
 162 506 162 506 187.5 508 c 128,-1,20
 213 510 213 510 229 510 c 0,21,22
 257 510 257 510 282 498.5 c 128,-1,23
 307 487 307 487 325.5 467.5 c 128,-1,24
 344 448 344 448 354.5 422 c 128,-1,25
 365 396 365 396 365 366 c 2,26,-1
 365 136 l 2,27,28
 365 106 365 106 354.5 79.5 c 128,-1,29
 344 53 344 53 325.5 33.5 c 128,-1,30
 307 14 307 14 282 3 c 128,-1,31
 257 -8 257 -8 229 -8 c 0,32,33
 208 -8 208 -8 176 -2.5 c 128,-1,34
 144 3 144 3 111 20 c 1,35,36
 104 15 104 15 96.5 7 c 128,-1,37
 89 -1 89 -1 84 -6 c 1,38,-1
 40 38 l 1,39,-1
 61 60 l 1,40,-1
 61 695 l 1,41,-1
 124 695 l 1,42,-1
 124 486 l 1,18,19
EndSplineSet
EndChar

StartChar: c
Encoding: 99 99 67
Width: 349
Flags: W
LayerCount: 2
Fore
SplineSet
114 151 m 2,0,1
 114 106 114 106 143.5 80 c 128,-1,2
 173 54 173 54 213 54 c 0,3,4
 221 54 221 54 236.5 56.5 c 128,-1,5
 252 59 252 59 267 63 c 0,6,7
 285 67 285 67 304 73 c 1,8,-1
 323 15 l 1,9,10
 302 8 302 8 283 3 c 0,11,12
 266 -2 266 -2 247 -5 c 128,-1,13
 228 -8 228 -8 213 -8 c 0,14,15
 180 -8 180 -8 150.5 4 c 128,-1,16
 121 16 121 16 99 37 c 128,-1,17
 77 58 77 58 64.5 87 c 128,-1,18
 52 116 52 116 52 151 c 2,19,-1
 52 354 l 2,20,21
 52 388 52 388 64.5 417 c 128,-1,22
 77 446 77 446 98.5 467 c 128,-1,23
 120 488 120 488 149.5 499.5 c 128,-1,24
 179 511 179 511 212 511 c 0,25,26
 228 511 228 511 246 506.5 c 128,-1,27
 264 502 264 502 281 497 c 0,28,29
 299 491 299 491 319 483 c 1,30,-1
 303 428 l 1,31,32
 287 434 287 434 270 438 c 0,33,34
 256 442 256 442 240 445.5 c 128,-1,35
 224 449 224 449 212 449 c 0,36,37
 172 449 172 449 143 423 c 128,-1,38
 114 397 114 397 114 354 c 2,39,-1
 114 151 l 2,0,1
EndSplineSet
EndChar

StartChar: d
Encoding: 100 100 68
Width: 416
Flags: W
LayerCount: 2
Fore
SplineSet
292 414 m 1,0,1
 262 432 262 432 232.5 439 c 128,-1,2
 203 446 203 446 188 446 c 0,3,4
 157 446 157 446 135.5 423 c 128,-1,5
 114 400 114 400 114 368 c 2,6,-1
 114 131 l 2,7,8
 114 99 114 99 135.5 76.5 c 128,-1,9
 157 54 157 54 187 54 c 0,10,11
 196 54 196 54 211.5 56.5 c 128,-1,12
 227 59 227 59 243.5 63 c 128,-1,13
 260 67 260 67 273.5 72.5 c 128,-1,14
 287 78 287 78 292 85 c 1,15,-1
 292 414 l 1,0,1
293 694 m 1,16,-1
 355 694 l 1,17,-1
 355 56 l 1,18,-1
 380 32 l 1,19,-1
 335 -12 l 1,20,-1
 305 18 l 1,21,22
 275 3 275 3 241.5 -3 c 128,-1,23
 208 -9 208 -9 188 -9 c 0,24,25
 159 -9 159 -9 134.5 2 c 128,-1,26
 110 13 110 13 91.5 32.5 c 128,-1,27
 73 52 73 52 62.5 78.5 c 128,-1,28
 52 105 52 105 52 135 c 2,29,-1
 52 365 l 2,30,31
 52 395 52 395 62.5 421 c 128,-1,32
 73 447 73 447 91.5 466.5 c 128,-1,33
 110 486 110 486 134.5 497.5 c 128,-1,34
 159 509 159 509 188 509 c 0,35,36
 203 509 203 509 230.5 505.5 c 128,-1,37
 258 502 258 502 293 485 c 1,38,-1
 293 694 l 1,16,-1
EndSplineSet
EndChar

StartChar: e
Encoding: 101 101 69
Width: 408
Flags: W
LayerCount: 2
Fore
SplineSet
227 248 m 2,0,1
 258 248 258 248 279.5 272.5 c 128,-1,2
 301 297 301 297 301 329 c 2,3,-1
 301 370 l 2,4,5
 301 391 301 391 293 405.5 c 128,-1,6
 285 420 285 420 271.5 429 c 128,-1,7
 258 438 258 438 240 442 c 128,-1,8
 222 446 222 446 203 446 c 0,9,10
 169 446 169 446 143 425.5 c 128,-1,11
 117 405 117 405 117 370 c 2,12,-1
 117 249 l 1,13,-1
 227 248 l 2,0,1
52 365 m 2,14,15
 52 395 52 395 63 421.5 c 128,-1,16
 74 448 74 448 93 467.5 c 128,-1,17
 112 487 112 487 137.5 498.5 c 128,-1,18
 163 510 163 510 192 510 c 2,19,-1
 225 510 l 2,20,21
 254 510 254 510 279.5 499 c 128,-1,22
 305 488 305 488 324 468.5 c 128,-1,23
 343 449 343 449 354 422.5 c 128,-1,24
 365 396 365 396 365 365 c 2,25,-1
 365 333 l 2,26,27
 365 290 365 290 350 261 c 128,-1,28
 335 232 335 232 308.5 214 c 128,-1,29
 282 196 282 196 247 188 c 128,-1,30
 212 180 212 180 173 180 c 0,31,32
 145 180 145 180 117 183 c 1,33,-1
 117 133 l 1,34,35
 124 98 124 98 151.5 76 c 128,-1,36
 179 54 179 54 214 54 c 0,37,38
 216 54 216 54 237.5 58.5 c 128,-1,39
 259 63 259 63 284 69 c 0,40,41
 313 75 313 75 348 84 c 1,42,-1
 364 18 l 1,43,44
 326 10 326 10 294 4 c 0,45,46
 267 -1 267 -1 243 -5 c 128,-1,47
 219 -9 219 -9 214 -9 c 0,48,49
 181 -9 181 -9 151.5 3 c 128,-1,50
 122 15 122 15 100 36 c 128,-1,51
 78 57 78 57 65 86 c 128,-1,52
 52 115 52 115 52 150 c 2,53,-1
 52 365 l 2,14,15
EndSplineSet
EndChar

StartChar: f
Encoding: 102 102 70
Width: 292
Flags: W
LayerCount: 2
Fore
SplineSet
176 0 m 1,0,-1
 110 0 l 1,1,-1
 110 439 l 1,2,-1
 25 439 l 1,3,-1
 25 500 l 1,4,-1
 111 500 l 1,5,-1
 111 569 l 2,6,7
 111 640 111 640 146 671.5 c 128,-1,8
 181 703 181 703 232 703 c 2,9,-1
 256 703 l 1,10,-1
 256 637 l 1,11,-1
 237 637 l 2,12,13
 213 637 213 637 194 624 c 128,-1,14
 175 611 175 611 175 576 c 2,15,-1
 175 500 l 1,16,-1
 268 500 l 1,17,-1
 268 439 l 1,18,-1
 176 439 l 1,19,-1
 176 0 l 1,0,-1
EndSplineSet
EndChar

StartChar: g
Encoding: 103 103 71
Width: 419
Flags: W
LayerCount: 2
Fore
SplineSet
294 416 m 1,0,1
 256 436 256 436 231 441 c 128,-1,2
 206 446 206 446 189 446 c 0,3,4
 159 446 159 446 137.5 423.5 c 128,-1,5
 116 401 116 401 116 370 c 2,6,-1
 116 132 l 2,7,8
 116 100 116 100 137.5 77 c 128,-1,9
 159 54 159 54 190 54 c 0,10,11
 198 54 198 54 206 54.5 c 128,-1,12
 214 55 214 55 225.5 58 c 128,-1,13
 237 61 237 61 253.5 67 c 128,-1,14
 270 73 270 73 294 85 c 1,15,-1
 294 416 l 1,0,1
357 -107 m 2,16,17
 357 -145 357 -145 344.5 -172.5 c 128,-1,18
 332 -200 332 -200 310 -217.5 c 128,-1,19
 288 -235 288 -235 259.5 -243.5 c 128,-1,20
 231 -252 231 -252 198 -252 c 0,21,22
 182 -252 182 -252 157 -247 c 128,-1,23
 132 -242 132 -242 109 -236 c 0,24,25
 81 -229 81 -229 51 -219 c 1,26,-1
 69 -160 l 1,27,28
 98 -169 98 -169 124 -176 c 0,29,30
 146 -182 146 -182 167 -187 c 128,-1,31
 188 -192 188 -192 198 -192 c 0,32,33
 237 -192 237 -192 266 -171 c 128,-1,34
 295 -150 295 -150 295 -108 c 2,35,-1
 295 12 l 1,36,37
 263 -4 263 -4 240 -6.5 c 128,-1,38
 217 -9 217 -9 200 -9 c 2,39,-1
 190 -9 l 2,40,41
 161 -9 161 -9 136.5 2.5 c 128,-1,42
 112 14 112 14 93 33.5 c 128,-1,43
 74 53 74 53 63.5 79 c 128,-1,44
 53 105 53 105 53 135 c 2,45,-1
 53 366 l 2,46,47
 53 396 53 396 63.5 422 c 128,-1,48
 74 448 74 448 93 467.5 c 128,-1,49
 112 487 112 487 136.5 498.5 c 128,-1,50
 161 510 161 510 190 510 c 0,51,52
 212 510 212 510 241.5 503 c 128,-1,53
 271 496 271 496 305 482 c 1,54,-1
 336 513 l 1,55,-1
 381 468 l 1,56,-1
 357 445 l 1,57,-1
 357 -107 l 2,16,17
EndSplineSet
EndChar

StartChar: h
Encoding: 104 104 72
Width: 423
Flags: W
LayerCount: 2
Fore
SplineSet
303 0 m 1,0,-1
 303 369 l 2,1,2
 303 401 303 401 281 423.5 c 128,-1,3
 259 446 259 446 229 446 c 0,4,5
 212 446 212 446 182 440 c 128,-1,6
 152 434 152 434 124 415 c 1,7,-1
 124 0 l 1,8,-1
 61 0 l 1,9,-1
 61 695 l 1,10,-1
 124 695 l 1,11,-1
 124 486 l 1,12,13
 162 506 162 506 187.5 508 c 128,-1,14
 213 510 213 510 229 510 c 0,15,16
 257 510 257 510 282 498.5 c 128,-1,17
 307 487 307 487 325.5 467.5 c 128,-1,18
 344 448 344 448 354.5 422 c 128,-1,19
 365 396 365 396 365 366 c 2,20,-1
 365 0 l 1,21,-1
 303 0 l 1,0,-1
EndSplineSet
EndChar

StartChar: i
Encoding: 105 105 73
Width: 188
Flags: W
LayerCount: 2
Fore
SplineSet
61 695 m 1,0,-1
 127 695 l 1,1,-1
 127 605 l 1,2,-1
 61 605 l 1,3,-1
 61 695 l 1,0,-1
61 500 m 1,4,-1
 127 500 l 1,5,-1
 127 0 l 1,6,-1
 61 0 l 1,7,-1
 61 500 l 1,4,-1
EndSplineSet
EndChar

StartChar: j
Encoding: 106 106 74
Width: 188
Flags: W
LayerCount: 2
Fore
SplineSet
60 501 m 1,0,-1
 127 501 l 1,1,-1
 127 -103 l 2,2,3
 127 -174 127 -174 92 -205.5 c 128,-1,4
 57 -237 57 -237 5 -237 c 2,5,-1
 -19 -237 l 1,6,-1
 -19 -171 l 1,7,-1
 1 -171 l 2,8,9
 25 -171 25 -171 43 -156.5 c 128,-1,10
 61 -142 61 -142 63 -108 c 1,11,-1
 60 501 l 1,0,-1
60 694 m 1,12,-1
 127 694 l 1,13,-1
 127 608 l 1,14,-1
 60 608 l 1,15,-1
 60 694 l 1,12,-1
EndSplineSet
EndChar

StartChar: k
Encoding: 107 107 75
Width: 338
Flags: W
LayerCount: 2
Fore
SplineSet
249 0 m 1,0,-1
 145 232 l 1,1,-1
 124 232 l 1,2,-1
 124 0 l 1,3,-1
 61 0 l 1,4,-1
 61 695 l 1,5,-1
 124 695 l 1,6,-1
 124 305 l 1,7,-1
 144 305 l 1,8,-1
 248 499 l 1,9,-1
 318 499 l 1,10,-1
 195 268 l 1,11,-1
 319 0 l 1,12,-1
 249 0 l 1,0,-1
EndSplineSet
EndChar

StartChar: l
Encoding: 108 108 76
Width: 218
Flags: W
LayerCount: 2
Fore
SplineSet
67 695 m 1,0,-1
 131 695 l 1,1,-1
 131 130 l 2,2,3
 131 94 131 94 149 80.5 c 128,-1,4
 167 67 167 67 192 67 c 2,5,-1
 212 67 l 1,6,-1
 212 1 l 1,7,-1
 187 1 l 2,8,9
 136 1 136 1 101.5 32.5 c 128,-1,10
 67 64 67 64 67 135 c 2,11,-1
 67 695 l 1,0,-1
EndSplineSet
EndChar

StartChar: m
Encoding: 109 109 77
Width: 680
Flags: W
LayerCount: 2
Fore
SplineSet
310 373 m 2,0,1
 310 388 310 388 302 401.5 c 128,-1,2
 294 415 294 415 281.5 425 c 128,-1,3
 269 435 269 435 252.5 440.5 c 128,-1,4
 236 446 236 446 219 446 c 0,5,6
 211 446 211 446 198.5 443.5 c 128,-1,7
 186 441 186 441 172.5 436.5 c 128,-1,8
 159 432 159 432 146.5 426.5 c 128,-1,9
 134 421 134 421 125 415 c 1,10,-1
 125 0 l 1,11,-1
 62 0 l 1,12,-1
 62 444 l 1,13,-1
 37 468 l 1,14,-1
 82 512 l 1,15,-1
 112 481 l 1,16,17
 138 495 138 495 163 502.5 c 128,-1,18
 188 510 188 510 213 510 c 0,19,20
 255 510 255 510 291.5 493 c 128,-1,21
 328 476 328 476 346 442 c 1,22,23
 375 482 375 482 413.5 496 c 128,-1,24
 452 510 452 510 487 510 c 0,25,26
 524 510 524 510 550 494.5 c 128,-1,27
 576 479 576 479 592 455 c 128,-1,28
 608 431 608 431 615.5 403.5 c 128,-1,29
 623 376 623 376 623 352 c 2,30,-1
 623 0 l 1,31,-1
 559 0 l 1,32,-1
 559 352 l 2,33,34
 559 369 559 369 555.5 385.5 c 128,-1,35
 552 402 552 402 543 415.5 c 128,-1,36
 534 429 534 429 519.5 437.5 c 128,-1,37
 505 446 505 446 484 446 c 0,38,39
 427 446 427 446 400.5 413.5 c 128,-1,40
 374 381 374 381 374 321 c 2,41,-1
 374 0 l 1,42,-1
 310 0 l 1,43,-1
 310 373 l 2,0,1
EndSplineSet
EndChar

StartChar: n
Encoding: 110 110 78
Width: 431
Flags: W
LayerCount: 2
Fore
SplineSet
358 425 m 0,0,1
 370 399 370 399 372 374 c 128,-1,2
 374 349 374 349 374 322 c 2,3,-1
 374 0 l 1,4,-1
 309 0 l 1,5,-1
 309 352 l 2,6,7
 309 398 309 398 284.5 422.5 c 128,-1,8
 260 447 260 447 230 447 c 0,9,10
 213 447 213 447 186.5 442.5 c 128,-1,11
 160 438 160 438 125 415 c 1,12,-1
 125 0 l 1,13,-1
 62 0 l 1,14,-1
 62 443 l 1,15,-1
 38 466 l 1,16,-1
 82 511 l 1,17,-1
 113 481 l 1,18,19
 165 509 165 509 213 509 c 0,20,21
 258 509 258 509 298 490 c 128,-1,22
 338 471 338 471 358 425 c 0,0,1
EndSplineSet
EndChar

StartChar: o
Encoding: 111 111 79
Width: 417
Flags: W
LayerCount: 2
Fore
SplineSet
306 358 m 2,0,1
 306 388 306 388 295.5 405.5 c 128,-1,2
 285 423 285 423 269.5 432.5 c 128,-1,3
 254 442 254 442 237.5 445 c 128,-1,4
 221 448 221 448 209 448 c 256,5,6
 197 448 197 448 180 445 c 128,-1,7
 163 442 163 442 147.5 432.5 c 128,-1,8
 132 423 132 423 121 405.5 c 128,-1,9
 110 388 110 388 110 358 c 2,10,-1
 110 147 l 2,11,12
 110 117 110 117 121 99 c 128,-1,13
 132 81 132 81 147.5 71.5 c 128,-1,14
 163 62 163 62 180 58.5 c 128,-1,15
 197 55 197 55 209 55 c 256,16,17
 221 55 221 55 237.5 58.5 c 128,-1,18
 254 62 254 62 269.5 71.5 c 128,-1,19
 285 81 285 81 295.5 99 c 128,-1,20
 306 117 306 117 306 147 c 2,21,-1
 306 358 l 2,0,1
364 140 m 2,22,23
 364 93 364 93 347 64.5 c 128,-1,24
 330 36 330 36 305.5 20 c 128,-1,25
 281 4 281 4 254.5 -1 c 128,-1,26
 228 -6 228 -6 209 -6 c 256,27,28
 190 -6 190 -6 163 -1 c 128,-1,29
 136 4 136 4 111.5 20 c 128,-1,30
 87 36 87 36 70 64.5 c 128,-1,31
 53 93 53 93 53 140 c 2,32,-1
 53 365 l 2,33,34
 53 412 53 412 70 440.5 c 128,-1,35
 87 469 87 469 111.5 484.5 c 128,-1,36
 136 500 136 500 163 505 c 128,-1,37
 190 510 190 510 209 510 c 256,38,39
 228 510 228 510 254.5 505 c 128,-1,40
 281 500 281 500 305.5 484.5 c 128,-1,41
 330 469 330 469 347 440.5 c 128,-1,42
 364 412 364 412 364 365 c 2,43,-1
 364 140 l 2,22,23
EndSplineSet
EndChar

StartChar: p
Encoding: 112 112 80
Width: 419
Flags: W
LayerCount: 2
Fore
SplineSet
126 85 m 1,0,1
 137 78 137 78 152 72.5 c 128,-1,2
 167 67 167 67 182 63 c 128,-1,3
 197 59 197 59 209.5 56.5 c 128,-1,4
 222 54 222 54 230 54 c 0,5,6
 261 54 261 54 282.5 76.5 c 128,-1,7
 304 99 304 99 304 131 c 2,8,-1
 304 370 l 2,9,10
 304 401 304 401 282.5 423.5 c 128,-1,11
 261 446 261 446 231 446 c 0,12,13
 214 446 214 446 183.5 439.5 c 128,-1,14
 153 433 153 433 126 414 c 1,15,-1
 126 85 l 1,0,1
125 -243 m 1,16,-1
 63 -243 l 1,17,-1
 63 445 l 1,18,-1
 39 468 l 1,19,-1
 82 513 l 1,20,-1
 114 482 l 1,21,22
 146 497 146 497 177.5 503.5 c 128,-1,23
 209 510 209 510 230 510 c 0,24,25
 258 510 258 510 283 498.5 c 128,-1,26
 308 487 308 487 326.5 467.5 c 128,-1,27
 345 448 345 448 355.5 422 c 128,-1,28
 366 396 366 396 366 366 c 2,29,-1
 366 134 l 2,30,31
 366 104 366 104 355.5 78 c 128,-1,32
 345 52 345 52 326.5 32.5 c 128,-1,33
 308 13 308 13 283 1.5 c 128,-1,34
 258 -10 258 -10 230 -10 c 0,35,36
 216 -10 216 -10 188 -6.5 c 128,-1,37
 160 -3 160 -3 125 14 c 1,38,-1
 125 -243 l 1,16,-1
EndSplineSet
EndChar

StartChar: q
Encoding: 113 113 81
Width: 417
Flags: W
LayerCount: 2
Fore
SplineSet
292 413 m 1,0,1
 257 436 257 436 230.5 441 c 128,-1,2
 204 446 204 446 187 446 c 0,3,4
 157 446 157 446 135.5 423.5 c 128,-1,5
 114 401 114 401 114 369 c 2,6,-1
 114 131 l 2,7,8
 114 99 114 99 135.5 76.5 c 128,-1,9
 157 54 157 54 188 54 c 0,10,11
 195 54 195 54 208 55.5 c 128,-1,12
 221 57 221 57 236 60.5 c 128,-1,13
 251 64 251 64 265.5 69.5 c 128,-1,14
 280 75 280 75 292 84 c 1,15,-1
 292 413 l 1,0,1
284 8 m 2,16,17
 258 -4 258 -4 237 -6.5 c 128,-1,18
 216 -9 216 -9 200 -10 c 1,19,-1
 191 -10 l 2,20,21
 162 -10 162 -10 137 1.5 c 128,-1,22
 112 13 112 13 93 32.5 c 128,-1,23
 74 52 74 52 63 78 c 128,-1,24
 52 104 52 104 52 134 c 2,25,-1
 52 365 l 2,26,27
 52 395 52 395 62.5 421 c 128,-1,28
 73 447 73 447 91.5 466.5 c 128,-1,29
 110 486 110 486 134.5 497.5 c 128,-1,30
 159 509 159 509 188 509 c 0,31,32
 208 509 208 509 240 502.5 c 128,-1,33
 272 496 272 496 304 482 c 1,34,-1
 336 512 l 1,35,-1
 379 467 l 1,36,-1
 355 444 l 1,37,-1
 355 -243 l 1,38,-1
 293 -243 l 1,39,-1
 293 12 l 1,40,-1
 284 8 l 2,16,17
EndSplineSet
EndChar

StartChar: r
Encoding: 114 114 82
Width: 332
Flags: W
LayerCount: 2
Fore
SplineSet
294 413 m 1,0,1
 276 424 276 424 264.5 430.5 c 128,-1,2
 253 437 253 437 244 440 c 128,-1,3
 235 443 235 443 227 443.5 c 128,-1,4
 219 444 219 444 210 444 c 0,5,6
 196 444 196 444 173 436.5 c 128,-1,7
 150 429 150 429 126 408 c 1,8,-1
 126 1 l 1,9,-1
 64 1 l 1,10,-1
 64 435 l 1,11,12
 58 441 58 441 49 449 c 128,-1,13
 40 457 40 457 35 463 c 1,14,-1
 79 508 l 1,15,-1
 113 475 l 1,16,17
 142 498 142 498 167.5 504 c 128,-1,18
 193 510 193 510 212 510 c 0,19,20
 232 510 232 510 257 501 c 128,-1,21
 282 492 282 492 329 466 c 1,22,-1
 294 413 l 1,0,1
EndSplineSet
EndChar

StartChar: s
Encoding: 115 115 83
Width: 361
Flags: W
LayerCount: 2
Fore
SplineSet
338 141 m 0,0,1
 338 66 338 66 300.5 28 c 128,-1,2
 263 -10 263 -10 203 -10 c 0,3,4
 185 -10 185 -10 166 -6.5 c 128,-1,5
 147 -3 147 -3 127 5 c 2,6,-1
 41 39 l 1,7,-1
 65 94 l 1,8,-1
 152 59 l 2,9,10
 165 54 165 54 178.5 52 c 128,-1,11
 192 50 192 50 204 50 c 0,12,13
 235 50 235 50 256.5 74.5 c 128,-1,14
 278 99 278 99 278 145 c 0,15,16
 278 164 278 164 270.5 177.5 c 128,-1,17
 263 191 263 191 251.5 199 c 128,-1,18
 240 207 240 207 226.5 211 c 128,-1,19
 213 215 213 215 201 215 c 0,20,21
 165 215 165 215 135.5 222 c 128,-1,22
 106 229 106 229 85 245.5 c 128,-1,23
 64 262 64 262 53 289.5 c 128,-1,24
 42 317 42 317 42 359 c 0,25,26
 42 396 42 396 53 424.5 c 128,-1,27
 64 453 64 453 82.5 472 c 128,-1,28
 101 491 101 491 126.5 500.5 c 128,-1,29
 152 510 152 510 182 510 c 0,30,31
 200 510 200 510 218 505.5 c 128,-1,32
 236 501 236 501 256 494 c 2,33,-1
 295 480 l 1,34,-1
 270 425 l 1,35,36
 244 434 244 434 229.5 439 c 128,-1,37
 215 444 215 444 206.5 446 c 128,-1,38
 198 448 198 448 194 448.5 c 128,-1,39
 190 449 190 449 186 449 c 2,40,-1
 181 449 l 2,41,42
 150 449 150 449 126 424 c 128,-1,43
 102 399 102 399 102 354 c 0,44,45
 102 335 102 335 110.5 320.5 c 128,-1,46
 119 306 119 306 131 296 c 128,-1,47
 143 286 143 286 157.5 281 c 128,-1,48
 172 276 172 276 184 276 c 0,49,50
 216 276 216 276 244 270.5 c 128,-1,51
 272 265 272 265 293 250 c 128,-1,52
 314 235 314 235 326 209 c 128,-1,53
 338 183 338 183 338 141 c 0,0,1
EndSplineSet
EndChar

StartChar: t
Encoding: 116 116 84
Width: 276
Flags: W
LayerCount: 2
Fore
SplineSet
101 439 m 1,0,-1
 18 439 l 1,1,-1
 18 501 l 1,2,-1
 101 501 l 1,3,-1
 101 695 l 1,4,-1
 166 695 l 1,5,-1
 166 501 l 1,6,-1
 255 501 l 1,7,-1
 255 439 l 1,8,-1
 166 439 l 1,9,-1
 166 128 l 2,10,11
 166 92 166 92 184 78.5 c 128,-1,12
 202 65 202 65 227 65 c 2,13,-1
 255 65 l 1,14,-1
 255 -1 l 1,15,-1
 222 -1 l 2,16,17
 171 -1 171 -1 136 30.5 c 128,-1,18
 101 62 101 62 101 133 c 2,19,-1
 101 439 l 1,0,-1
EndSplineSet
EndChar

StartChar: u
Encoding: 117 117 85
Width: 430
Flags: W
LayerCount: 2
Fore
SplineSet
74 76 m 1,0,1
 61 102 61 102 59 127 c 128,-1,2
 57 152 57 152 57 179 c 2,3,-1
 57 500 l 1,4,-1
 121 500 l 1,5,-1
 121 149 l 2,6,7
 121 103 121 103 146 78.5 c 128,-1,8
 171 54 171 54 201 54 c 0,9,10
 230 54 230 54 259.5 64.5 c 128,-1,11
 289 75 289 75 306 86 c 1,12,-1
 306 500 l 1,13,-1
 369 500 l 1,14,-1
 369 58 l 1,15,-1
 394 35 l 1,16,-1
 349 -10 l 1,17,-1
 319 20 l 1,18,19
 291 6 291 6 259 -1 c 128,-1,20
 227 -8 227 -8 202 -8 c 0,21,22
 165 -8 165 -8 129.5 11 c 128,-1,23
 94 30 94 30 74 76 c 1,0,1
EndSplineSet
EndChar

StartChar: v
Encoding: 118 118 86
Width: 366
Flags: W
LayerCount: 2
Fore
SplineSet
282 500 m 1,0,-1
 346 500 l 1,1,-1
 233 0 l 1,2,-1
 139 0 l 1,3,-1
 20 500 l 1,4,-1
 83 500 l 1,5,6
 117 361 117 361 137 277.5 c 128,-1,7
 157 194 157 194 168 150 c 1,8,9
 180 97 180 97 185 77 c 1,10,-1
 282 500 l 1,0,-1
EndSplineSet
EndChar

StartChar: w
Encoding: 119 119 87
Width: 529
Flags: W
LayerCount: 2
Fore
SplineSet
312 499 m 1,0,-1
 379 75 l 1,1,-1
 440 500 l 1,2,-1
 503 500 l 1,3,-1
 423 0 l 1,4,-1
 339 0 l 1,5,-1
 263 421 l 1,6,7
 244 317 244 317 226 210 c 128,-1,8
 208 103 208 103 188 0 c 1,9,-1
 106 0 l 1,10,-1
 26 500 l 1,11,-1
 88 500 l 1,12,-1
 145 75 l 1,13,-1
 216 499 l 1,14,-1
 312 499 l 1,0,-1
EndSplineSet
EndChar

StartChar: x
Encoding: 120 120 88
Width: 360
Flags: W
LayerCount: 2
Fore
SplineSet
177 214 m 1,0,-1
 85 0 l 1,1,-1
 22 0 l 1,2,-1
 128 249 l 1,3,-1
 22 500 l 1,4,-1
 85 500 l 1,5,-1
 180 286 l 1,6,7
 203 339 203 339 225.5 393 c 128,-1,8
 248 447 248 447 271 500 c 1,9,-1
 336 500 l 1,10,-1
 234 249 l 1,11,12
 260 189 260 189 286.5 125 c 128,-1,13
 313 61 313 61 339 1 c 1,14,-1
 274 1 l 1,15,-1
 181 214 l 1,16,-1
 177 214 l 1,0,-1
EndSplineSet
EndChar

StartChar: y
Encoding: 121 121 89
Width: 378
Flags: W
LayerCount: 2
Fore
SplineSet
116 -243 m 1,0,-1
 156 0 l 1,1,-1
 151 0 l 1,2,-1
 19 500 l 1,3,-1
 83 500 l 1,4,5
 109 393 109 393 128.5 318.5 c 128,-1,6
 148 244 148 244 161 196 c 0,7,8
 176 141 176 141 187 105 c 1,9,-1
 188 105 l 1,10,11
 189 111 189 111 195.5 137 c 128,-1,12
 202 163 202 163 214.5 211 c 128,-1,13
 227 259 227 259 246.5 330.5 c 128,-1,14
 266 402 266 402 294 500 c 1,15,-1
 359 500 l 1,16,-1
 225 0 l 1,17,-1
 219 0 l 1,18,19
 210 -60 210 -60 199 -121.5 c 128,-1,20
 188 -183 188 -183 180 -243 c 1,21,-1
 116 -243 l 1,0,-1
EndSplineSet
EndChar

StartChar: z
Encoding: 122 122 90
Width: 408
Flags: W
LayerCount: 2
Fore
SplineSet
379 0 m 1,0,-1
 34 0 l 1,1,-1
 34 60 l 1,2,-1
 280 425 l 1,3,-1
 280 435 l 1,4,-1
 42 435 l 1,5,-1
 42 498 l 1,6,-1
 362 498 l 1,7,-1
 362 438 l 1,8,-1
 116 71 l 1,9,-1
 116 63 l 1,10,-1
 379 63 l 1,11,-1
 379 0 l 1,0,-1
EndSplineSet
EndChar

StartChar: braceleft
Encoding: 123 123 91
Width: 237
Flags: W
LayerCount: 2
Fore
SplineSet
178 -72 m 2,0,1
 143 -72 143 -72 122 -65 c 128,-1,2
 101 -58 101 -58 88 -45 c 0,3,4
 73 -30 73 -30 67 -10 c 128,-1,5
 61 10 61 10 61 45 c 2,6,-1
 61 650 l 2,7,8
 61 685 61 685 67 705 c 128,-1,9
 73 725 73 725 88 739 c 1,10,11
 101 753 101 753 122 760 c 128,-1,12
 143 767 143 767 178 767 c 2,13,-1
 207 767 l 1,14,-1
 207 705 l 1,15,-1
 183 705 l 2,16,17
 162 705 162 705 151 704 c 128,-1,18
 140 703 140 703 134 696 c 0,19,20
 127 689 127 689 125 674.5 c 128,-1,21
 123 660 123 660 123 638 c 2,22,-1
 123 53 l 2,23,24
 123 30 123 30 125 17.5 c 128,-1,25
 127 5 127 5 134 -2 c 0,26,27
 140 -9 140 -9 151 -10 c 128,-1,28
 162 -11 162 -11 183 -11 c 2,29,-1
 207 -11 l 1,30,-1
 207 -72 l 1,31,-1
 178 -72 l 2,0,1
EndSplineSet
EndChar

StartChar: bar
Encoding: 124 124 92
Width: 194
Flags: W
LayerCount: 2
Fore
SplineSet
66 -10 m 1,0,-1
 66 695 l 1,1,-1
 128 695 l 1,2,-1
 128 -10 l 1,3,-1
 66 -10 l 1,0,-1
EndSplineSet
EndChar

StartChar: braceright
Encoding: 125 125 93
Width: 243
Flags: W
LayerCount: 2
Fore
SplineSet
182 47 m 1,0,1
 182 12 182 12 175.5 -8 c 128,-1,2
 169 -28 169 -28 154 -43 c 0,3,4
 140 -56 140 -56 119 -63 c 128,-1,5
 98 -70 98 -70 63 -70 c 2,6,-1
 31 -70 l 1,7,-1
 31 -9 l 1,8,-1
 71 -9 l 2,9,10
 85 -9 85 -9 94 -7.5 c 128,-1,11
 103 -6 103 -6 108 -1 c 0,12,13
 119 11 119 11 119 54 c 2,14,-1
 119 644 l 2,15,16
 119 687 119 687 108 698 c 0,17,18
 101 705 101 705 90 706 c 128,-1,19
 79 707 79 707 58 707 c 2,20,-1
 31 707 l 1,21,-1
 31 768 l 1,22,-1
 63 768 l 2,23,24
 98 768 98 768 119 761.5 c 128,-1,25
 140 755 140 755 154 741 c 0,26,27
 169 727 169 727 175.5 707 c 128,-1,28
 182 687 182 687 182 652 c 2,29,-1
 182 47 l 1,30,-1
 182 47 l 1,0,1
EndSplineSet
EndChar

StartChar: asciitilde
Encoding: 126 126 94
Width: 457
Flags: W
LayerCount: 2
Fore
SplineSet
418 282 m 1,0,1
 398 263 398 263 383 251 c 128,-1,2
 368 239 368 239 355 232 c 128,-1,3
 342 225 342 225 329.5 222.5 c 128,-1,4
 317 220 317 220 303 220 c 0,5,6
 284 220 284 220 265 227.5 c 128,-1,7
 246 235 246 235 226 244 c 0,8,9
 208 252 208 252 189.5 259.5 c 128,-1,10
 171 267 171 267 152 267 c 0,11,12
 144 267 144 267 136.5 265.5 c 128,-1,13
 129 264 129 264 121.5 260 c 128,-1,14
 114 256 114 256 104.5 248.5 c 128,-1,15
 95 241 95 241 82 228 c 1,16,-1
 40 263 l 1,17,18
 59 282 59 282 74 294 c 128,-1,19
 89 306 89 306 102 313 c 128,-1,20
 115 320 115 320 127.5 322.5 c 128,-1,21
 140 325 140 325 154 325 c 0,22,23
 176 325 176 325 195 317 c 128,-1,24
 214 309 214 309 233 301 c 1,25,26
 251 292 251 292 268.5 285 c 128,-1,27
 286 278 286 278 305 278 c 0,28,29
 313 278 313 278 320 279.5 c 128,-1,30
 327 281 327 281 335 285 c 128,-1,31
 343 289 343 289 352 296.5 c 128,-1,32
 361 304 361 304 374 317 c 1,33,-1
 418 282 l 1,0,1
EndSplineSet
EndChar

StartChar: exclamdown
Encoding: 161 161 95
Width: 196
Flags: W
LayerCount: 2
Fore
SplineSet
130 558 m 1,0,-1
 130 1 l 1,1,-1
 66 1 l 1,2,-1
 66 558 l 1,3,-1
 130 558 l 1,0,-1
130 695 m 1,4,-1
 130 593 l 1,5,-1
 65 593 l 1,6,-1
 65 695 l 1,7,-1
 130 695 l 1,4,-1
EndSplineSet
EndChar

StartChar: cent
Encoding: 162 162 96
Width: 356
Flags: W
LayerCount: 2
Fore
SplineSet
165 633 m 1,0,-1
 227 633 l 1,1,-1
 227 510 l 1,2,3
 241 508 241 508 257 504 c 128,-1,4
 273 500 273 500 286 495 c 0,5,6
 301 490 301 490 315 484 c 1,7,-1
 299 429 l 1,8,9
 283 435 283 435 266 439 c 0,10,11
 252 443 252 443 236 446.5 c 128,-1,12
 220 450 220 450 208 450 c 0,13,14
 168 450 168 450 139 424 c 128,-1,15
 110 398 110 398 110 355 c 2,16,-1
 110 152 l 2,17,18
 110 107 110 107 139.5 81 c 128,-1,19
 169 55 169 55 209 55 c 0,20,21
 217 55 217 55 232.5 57.5 c 128,-1,22
 248 60 248 60 263 64 c 0,23,24
 281 68 281 68 300 74 c 1,25,-1
 315 18 l 1,26,27
 300 12 300 12 285 7 c 0,28,29
 272 2 272 2 256.5 -1.5 c 128,-1,30
 241 -5 241 -5 227 -6 c 1,31,-1
 227 -127 l 1,32,-1
 165 -127 l 1,33,-1
 165 -2 l 1,34,35
 141 5 141 5 120 20 c 128,-1,36
 99 35 99 35 83 55 c 128,-1,37
 67 75 67 75 57.5 99.5 c 128,-1,38
 48 124 48 124 48 152 c 2,39,-1
 48 355 l 2,40,41
 48 412 48 412 82 452.5 c 128,-1,42
 116 493 116 493 165 507 c 1,43,-1
 165 633 l 1,0,-1
EndSplineSet
EndChar

StartChar: sterling
Encoding: 163 163 97
Width: 503
Flags: W
LayerCount: 2
Fore
SplineSet
390 512 m 1,0,1
 390 552 390 552 377 576.5 c 128,-1,2
 364 601 364 601 345.5 614.5 c 128,-1,3
 327 628 327 628 305.5 632.5 c 128,-1,4
 284 637 284 637 267 637 c 0,5,6
 249 637 249 637 228.5 632 c 128,-1,7
 208 627 208 627 190.5 614.5 c 128,-1,8
 173 602 173 602 162 579 c 128,-1,9
 151 556 151 556 151 520 c 2,10,-1
 151 385 l 1,11,-1
 366 385 l 1,12,-1
 366 314 l 1,13,-1
 151 314 l 1,14,-1
 151 66 l 1,15,-1
 456 66 l 1,16,-1
 456 0 l 1,17,-1
 84 0 l 1,18,-1
 84 314 l 1,19,-1
 46 314 l 1,20,-1
 46 385 l 1,21,-1
 84 385 l 1,22,-1
 84 518 l 2,23,24
 84 558 84 558 97 592 c 128,-1,25
 110 626 110 626 134 651 c 128,-1,26
 158 676 158 676 192 689.5 c 128,-1,27
 226 703 226 703 268 703 c 0,28,29
 309 703 309 703 344 689 c 128,-1,30
 379 675 379 675 404 649.5 c 128,-1,31
 429 624 429 624 443 589 c 128,-1,32
 457 554 457 554 457 512 c 1,33,-1
 390 512 l 1,0,1
EndSplineSet
EndChar

StartChar: yen
Encoding: 165 165 98
Width: 487
Flags: W
LayerCount: 2
Fore
SplineSet
279 171 m 1,0,-1
 279 1 l 1,1,-1
 207 1 l 1,2,-1
 207 171 l 1,3,-1
 70 171 l 1,4,-1
 70 247 l 1,5,-1
 207 247 l 1,6,-1
 207 310 l 1,7,-1
 199 310 l 1,8,-1
 176 361 l 1,9,-1
 70 361 l 1,10,-1
 70 437 l 1,11,-1
 145 437 l 1,12,13
 119 499 119 499 91.5 566.5 c 128,-1,14
 64 634 64 634 38 696 c 1,15,-1
 106 696 l 1,16,-1
 239 382 l 1,17,-1
 247 382 l 1,18,-1
 381 696 l 1,19,-1
 449 696 l 1,20,-1
 342 437 l 1,21,-1
 417 437 l 1,22,-1
 417 361 l 1,23,-1
 310 361 l 1,24,-1
 290 310 l 1,25,-1
 279 310 l 1,26,-1
 279 247 l 1,27,-1
 417 247 l 1,28,-1
 417 171 l 1,29,-1
 279 171 l 1,0,-1
EndSplineSet
EndChar

StartChar: brokenbar
Encoding: 166 166 99
Width: 196
Flags: W
LayerCount: 2
Fore
SplineSet
66 695 m 1,0,-1
 130 695 l 1,1,-1
 130 377 l 1,2,-1
 66 377 l 1,3,-1
 66 695 l 1,0,-1
66 317 m 1,4,-1
 130 317 l 1,5,-1
 130 0 l 1,6,-1
 66 0 l 1,7,-1
 66 317 l 1,4,-1
EndSplineSet
EndChar

StartChar: dieresis
Encoding: 168 168 100
Width: 451
Flags: W
LayerCount: 2
Fore
SplineSet
290 584 m 1,0,-1
 290 672 l 1,1,-1
 360 672 l 1,2,-1
 360 584 l 1,3,-1
 290 584 l 1,0,-1
98 584 m 1,4,-1
 98 672 l 1,5,-1
 168 672 l 1,6,-1
 168 584 l 1,7,-1
 98 584 l 1,4,-1
EndSplineSet
EndChar

StartChar: copyright
Encoding: 169 169 101
Width: 791
Flags: W
LayerCount: 2
Fore
SplineSet
751 346 m 256,0,1
 751 272 751 272 723 207.5 c 128,-1,2
 695 143 695 143 647 94.5 c 128,-1,3
 599 46 599 46 534.5 18 c 128,-1,4
 470 -10 470 -10 396 -10 c 256,5,6
 322 -10 322 -10 257.5 18 c 128,-1,7
 193 46 193 46 144.5 94.5 c 128,-1,8
 96 143 96 143 68 207.5 c 128,-1,9
 40 272 40 272 40 346 c 256,10,11
 40 420 40 420 68 485 c 128,-1,12
 96 550 96 550 144.5 598 c 128,-1,13
 193 646 193 646 257.5 674 c 128,-1,14
 322 702 322 702 396 702 c 256,15,16
 470 702 470 702 534.5 674 c 128,-1,17
 599 646 599 646 647 598 c 128,-1,18
 695 550 695 550 723 485 c 128,-1,19
 751 420 751 420 751 346 c 256,0,1
689 346 m 256,20,21
 689 407 689 407 666 460.5 c 128,-1,22
 643 514 643 514 603 554 c 128,-1,23
 563 594 563 594 510 617 c 128,-1,24
 457 640 457 640 396 640 c 0,25,26
 336 640 336 640 282.5 617 c 128,-1,27
 229 594 229 594 189 554.5 c 128,-1,28
 149 515 149 515 125.5 461 c 128,-1,29
 102 407 102 407 102 346 c 256,30,31
 102 285 102 285 125.5 231.5 c 128,-1,32
 149 178 149 178 189 138.5 c 128,-1,33
 229 99 229 99 282.5 76 c 128,-1,34
 336 53 336 53 396 53 c 0,35,36
 457 53 457 53 510 76 c 128,-1,37
 563 99 563 99 603 138.5 c 128,-1,38
 643 178 643 178 666 231.5 c 128,-1,39
 689 285 689 285 689 346 c 256,20,21
316 270 m 2,40,41
 316 231 316 231 343 206.5 c 128,-1,42
 370 182 370 182 407 182 c 0,43,44
 419 182 419 182 439.5 186.5 c 128,-1,45
 460 191 460 191 470 194 c 1,46,47
 473 186 473 186 474.5 183 c 128,-1,48
 476 180 476 180 478 172 c 1,49,50
 464 168 464 168 451 165 c 0,51,52
 440 162 440 162 427.5 160 c 128,-1,53
 415 158 415 158 407 158 c 0,54,55
 383 158 383 158 362.5 166 c 128,-1,56
 342 174 342 174 326 189 c 128,-1,57
 310 204 310 204 301 224.5 c 128,-1,58
 292 245 292 245 292 270 c 2,59,-1
 292 435 l 2,60,61
 292 459 292 459 301 479.5 c 128,-1,62
 310 500 310 500 325.5 515 c 128,-1,63
 341 530 341 530 361.5 538 c 128,-1,64
 382 546 382 546 406 546 c 0,65,66
 426 546 426 546 446 539.5 c 128,-1,67
 466 533 466 533 474 530 c 1,68,-1
 469 510 l 1,69,70
 457 512 457 512 446 515 c 0,71,72
 436 517 436 517 425 519 c 128,-1,73
 414 521 414 521 406 521 c 0,74,75
 369 521 369 521 342.5 497 c 128,-1,76
 316 473 316 473 316 435 c 2,77,-1
 316 270 l 2,40,41
EndSplineSet
EndChar

StartChar: registered
Encoding: 174 174 102
Width: 791
Flags: W
LayerCount: 2
Fore
SplineSet
751 350 m 256,0,1
 751 276 751 276 723 211.5 c 128,-1,2
 695 147 695 147 647 98.5 c 128,-1,3
 599 50 599 50 534 22 c 128,-1,4
 469 -6 469 -6 396 -6 c 0,5,6
 322 -6 322 -6 257 22 c 128,-1,7
 192 50 192 50 144 98.5 c 128,-1,8
 96 147 96 147 68 211.5 c 128,-1,9
 40 276 40 276 40 350 c 256,10,11
 40 424 40 424 68 489 c 128,-1,12
 96 554 96 554 144 602 c 128,-1,13
 192 650 192 650 257 678 c 128,-1,14
 322 706 322 706 396 706 c 0,15,16
 469 706 469 706 534 678 c 128,-1,17
 599 650 599 650 647 602 c 128,-1,18
 695 554 695 554 723 489 c 128,-1,19
 751 424 751 424 751 350 c 256,0,1
689 350 m 256,20,21
 689 411 689 411 666 465 c 128,-1,22
 643 519 643 519 603 558.5 c 128,-1,23
 563 598 563 598 509.5 621 c 128,-1,24
 456 644 456 644 396 644 c 0,25,26
 335 644 335 644 281.5 621 c 128,-1,27
 228 598 228 598 188 558.5 c 128,-1,28
 148 519 148 519 125 465 c 128,-1,29
 102 411 102 411 102 350 c 256,30,31
 102 289 102 289 125 235.5 c 128,-1,32
 148 182 148 182 188 142 c 128,-1,33
 228 102 228 102 281.5 79 c 128,-1,34
 335 56 335 56 396 56 c 0,35,36
 456 56 456 56 509.5 79 c 128,-1,37
 563 102 563 102 603 142 c 128,-1,38
 643 182 643 182 666 235.5 c 128,-1,39
 689 289 689 289 689 350 c 256,20,21
390 532 m 0,40,41
 379 532 379 532 366.5 529.5 c 128,-1,42
 354 527 354 527 343 524 c 0,43,44
 331 520 331 520 318 516 c 1,45,-1
 318 342 l 1,46,-1
 390 342 l 2,47,48
 434 342 434 342 461 368.5 c 128,-1,49
 488 395 488 395 488 444 c 256,50,51
 488 493 488 493 461 512.5 c 128,-1,52
 434 532 434 532 390 532 c 0,40,41
443 323 m 1,53,-1
 511 157 l 1,54,-1
 491 157 l 1,55,-1
 420 326 l 1,56,57
 409 323 409 323 404 322.5 c 128,-1,58
 399 322 399 322 394 322 c 2,59,-1
 318 322 l 1,60,-1
 318 157 l 1,61,-1
 301 157 l 1,62,-1
 301 533 l 1,63,64
 316 539 316 539 332 543 c 0,65,66
 346 547 346 547 362 550 c 128,-1,67
 378 553 378 553 395 553 c 0,68,69
 417 553 417 553 437.5 546 c 128,-1,70
 458 539 458 539 474 525 c 128,-1,71
 490 511 490 511 499.5 490.5 c 128,-1,72
 509 470 509 470 509 444 c 0,73,74
 509 407 509 407 491.5 375 c 128,-1,75
 474 343 474 343 446 332 c 1,76,-1
 443 323 l 1,53,-1
EndSplineSet
EndChar

StartChar: degree
Encoding: 176 176 103
Width: 329
Flags: W
LayerCount: 2
Fore
SplineSet
293 577 m 0,0,1
 293 551 293 551 283 527.5 c 128,-1,2
 273 504 273 504 255.5 486.5 c 128,-1,3
 238 469 238 469 214.5 458.5 c 128,-1,4
 191 448 191 448 164 448 c 0,5,6
 138 448 138 448 114.5 458.5 c 128,-1,7
 91 469 91 469 73.5 486.5 c 128,-1,8
 56 504 56 504 46 527.5 c 128,-1,9
 36 551 36 551 36 577 c 0,10,11
 36 604 36 604 46 627 c 128,-1,12
 56 650 56 650 73.5 667.5 c 128,-1,13
 91 685 91 685 114.5 695 c 128,-1,14
 138 705 138 705 164 705 c 0,15,16
 191 705 191 705 214.5 695 c 128,-1,17
 238 685 238 685 255.5 668 c 128,-1,18
 273 651 273 651 283 627.5 c 128,-1,19
 293 604 293 604 293 577 c 0,0,1
235 577 m 256,20,21
 235 606 235 606 214 626.5 c 128,-1,22
 193 647 193 647 164 647 c 256,23,24
 135 647 135 647 114.5 626.5 c 128,-1,25
 94 606 94 606 94 577 c 256,26,27
 94 548 94 548 114.5 528 c 128,-1,28
 135 508 135 508 164 508 c 256,29,30
 193 508 193 508 214 528 c 128,-1,31
 235 548 235 548 235 577 c 256,20,21
EndSplineSet
EndChar

StartChar: acute
Encoding: 180 180 104
Width: 463
Flags: W
LayerCount: 2
Fore
SplineSet
258 574 m 1,0,-1
 191 574 l 1,1,-1
 294 731 l 1,2,-1
 371 731 l 1,3,-1
 258 574 l 1,0,-1
EndSplineSet
EndChar

StartChar: mu
Encoding: 181 181 105
AltUni2: 0003bc.ffffffff.0
Width: 442
Flags: W
LayerCount: 2
Fore
SplineSet
70 -202 m 1,0,-1
 70 135 l 1,1,2
 69 144 69 144 69 156 c 128,-1,3
 69 168 69 168 69 179 c 2,4,-1
 70 502 l 1,5,-1
 133 500 l 1,6,-1
 133 149 l 2,7,8
 133 103 133 103 158 78.5 c 128,-1,9
 183 54 183 54 213 54 c 0,10,11
 242 54 242 54 271.5 64.5 c 128,-1,12
 301 75 301 75 318 86 c 1,13,-1
 318 500 l 1,14,-1
 381 500 l 1,15,-1
 381 58 l 1,16,-1
 406 35 l 1,17,-1
 361 -10 l 1,18,-1
 331 20 l 1,19,20
 303 6 303 6 271 -1 c 128,-1,21
 239 -8 239 -8 214 -8 c 0,22,23
 193 -8 193 -8 172 -3 c 128,-1,24
 151 2 151 2 132 16 c 1,25,-1
 132 -202 l 1,26,-1
 70 -202 l 1,0,-1
EndSplineSet
EndChar

StartChar: cedilla
Encoding: 184 184 106
Width: 394
Flags: W
LayerCount: 2
Fore
SplineSet
237 -89 m 1,0,1
 237 -145 237 -145 219.5 -174.5 c 128,-1,2
 202 -204 202 -204 173 -218 c 1,3,-1
 137 -172 l 1,4,5
 155 -164 155 -164 166 -142 c 128,-1,6
 177 -120 177 -120 177 -88 c 2,7,-1
 177 -31 l 1,8,-1
 237 -31 l 1,9,-1
 237 -89 l 1,10,-1
 237 -89 l 1,0,1
EndSplineSet
EndChar

StartChar: questiondown
Encoding: 191 191 107
Width: 391
Flags: W
LayerCount: 2
Fore
SplineSet
286 464 m 1,0,-1
 286 363 l 1,1,-1
 205 363 l 1,2,-1
 205 464 l 1,3,-1
 286 464 l 1,0,-1
34 -67 m 0,4,5
 34 -38 34 -38 42.5 -16.5 c 128,-1,6
 51 5 51 5 62 21 c 2,7,-1
 201 231 l 2,8,9
 211 245 211 245 218.5 261.5 c 128,-1,10
 226 278 226 278 226 301 c 2,11,-1
 226 314 l 1,12,-1
 268 314 l 1,13,-1
 268 302 l 2,14,15
 268 269 268 269 260 248 c 128,-1,16
 252 227 252 227 241 210 c 0,17,18
 209 161 209 161 175 111 c 128,-1,19
 141 61 141 61 109 12 c 0,20,21
 97 -5 97 -5 86.5 -26 c 128,-1,22
 76 -47 76 -47 76 -66 c 0,23,24
 76 -93 76 -93 89.5 -114.5 c 128,-1,25
 103 -136 103 -136 123 -151.5 c 128,-1,26
 143 -167 143 -167 165.5 -175 c 128,-1,27
 188 -183 188 -183 207 -183 c 0,28,29
 221 -183 221 -183 233 -180 c 128,-1,30
 245 -177 245 -177 257 -172 c 2,31,-1
 345 -138 l 1,32,-1
 360 -177 l 1,33,-1
 284 -209 l 2,34,35
 267 -216 267 -216 244.5 -221.5 c 128,-1,36
 222 -227 222 -227 208 -227 c 0,37,38
 174 -227 174 -227 142.5 -215.5 c 128,-1,39
 111 -204 111 -204 87 -183 c 128,-1,40
 63 -162 63 -162 48.5 -132.5 c 128,-1,41
 34 -103 34 -103 34 -67 c 0,4,5
EndSplineSet
EndChar

StartChar: AE
Encoding: 198 198 113
Width: 733
Flags: W
LayerCount: 2
Fore
SplineSet
200 264 m 1,0,1
 252 264 252 264 300.5 263.5 c 128,-1,2
 349 263 349 263 400 263 c 1,3,4
 400 354 400 354 400.5 442.5 c 128,-1,5
 401 531 401 531 401 622 c 1,6,7
 391 622 391 622 381.5 622.5 c 128,-1,8
 372 623 372 623 361 623 c 1,9,-1
 200 264 l 1,0,1
689 700 m 1,10,-1
 689 630 l 1,11,-1
 467 630 l 1,12,-1
 467 387 l 1,13,-1
 641 387 l 1,14,-1
 641 317 l 1,15,-1
 467 317 l 1,16,-1
 467 72 l 1,17,-1
 691 72 l 1,18,-1
 691 1 l 1,19,-1
 400 1 l 1,20,-1
 400 192 l 1,21,-1
 166 192 l 1,22,-1
 79 1 l 1,23,-1
 11 1 l 1,24,-1
 332 700 l 1,25,-1
 689 700 l 1,10,-1
EndSplineSet
EndChar

StartChar: multiply
Encoding: 215 215 129
Width: 456
Flags: W
LayerCount: 2
Fore
SplineSet
361 93 m 1,0,-1
 228 226 l 1,1,-1
 96 93 l 1,2,-1
 52 137 l 1,3,-1
 185 269 l 1,4,-1
 52 402 l 1,5,-1
 96 446 l 1,6,-1
 228 313 l 1,7,-1
 361 446 l 1,8,-1
 404 402 l 1,9,-1
 272 269 l 1,10,-1
 404 137 l 1,11,-1
 361 93 l 1,0,-1
EndSplineSet
EndChar

StartChar: Oslash
Encoding: 216 216 130
Width: 521
Flags: W
LayerCount: 2
Fore
SplineSet
388 520 m 2,0,1
 388 557 388 557 374 579.5 c 128,-1,2
 360 602 360 602 339.5 614.5 c 128,-1,3
 319 627 319 627 297 631 c 128,-1,4
 275 635 275 635 260 635 c 256,5,6
 245 635 245 635 223 630.5 c 128,-1,7
 201 626 201 626 181 613.5 c 128,-1,8
 161 601 161 601 146.5 578.5 c 128,-1,9
 132 556 132 556 132 519 c 2,10,-1
 132 175 l 2,11,12
 132 137 132 137 146.5 115.5 c 128,-1,13
 161 94 161 94 181 82.5 c 128,-1,14
 201 71 201 71 223 68 c 128,-1,15
 245 65 245 65 260 65 c 256,16,17
 275 65 275 65 297 68.5 c 128,-1,18
 319 72 319 72 339.5 83.5 c 128,-1,19
 360 95 360 95 374 116.5 c 128,-1,20
 388 138 388 138 388 175 c 2,21,-1
 388 520 l 2,0,1
456 175 m 2,22,23
 456 153 456 153 447 121.5 c 128,-1,24
 438 90 438 90 416 61 c 128,-1,25
 394 32 394 32 355.5 11.5 c 128,-1,26
 317 -9 317 -9 259 -9 c 0,27,28
 203 -9 203 -9 165.5 11.5 c 128,-1,29
 128 32 128 32 105.5 61 c 128,-1,30
 83 90 83 90 74 121.5 c 128,-1,31
 65 153 65 153 65 175 c 2,32,-1
 65 519 l 2,33,34
 65 541 65 541 74 573.5 c 128,-1,35
 83 606 83 606 105 636 c 128,-1,36
 127 666 127 666 164.5 687.5 c 128,-1,37
 202 709 202 709 260 709 c 0,38,39
 317 709 317 709 354.5 688 c 128,-1,40
 392 667 392 667 414.5 637 c 128,-1,41
 437 607 437 607 446.5 574.5 c 128,-1,42
 456 542 456 542 456 520 c 2,43,-1
 456 175 l 2,22,23
358 765 m 1,44,-1
 236 -65 l 1,45,-1
 163 -65 l 1,46,-1
 285 765 l 1,47,-1
 358 765 l 1,44,-1
EndSplineSet
EndChar

StartChar: Thorn
Encoding: 222 222 136
Width: 431
Flags: W
LayerCount: 2
Fore
SplineSet
139 80 m 1,0,1
 190 55 190 55 245 55 c 0,2,3
 275 55 275 55 297 78 c 128,-1,4
 319 101 319 101 319 133 c 2,5,-1
 319 372 l 2,6,7
 319 404 319 404 297 427 c 128,-1,8
 275 450 275 450 244 450 c 0,9,10
 223 450 223 450 192.5 442 c 128,-1,11
 162 434 162 434 139 420 c 1,12,-1
 139 80 l 1,0,1
138 490 m 1,13,14
 176 510 176 510 202.5 512 c 128,-1,15
 229 514 229 514 244 514 c 0,16,17
 273 514 273 514 298 502.5 c 128,-1,18
 323 491 323 491 342 471 c 128,-1,19
 361 451 361 451 371.5 425 c 128,-1,20
 382 399 382 399 382 369 c 2,21,-1
 382 137 l 2,22,23
 382 107 382 107 371.5 80.5 c 128,-1,24
 361 54 361 54 342 34.5 c 128,-1,25
 323 15 323 15 298 4 c 128,-1,26
 273 -7 273 -7 244 -7 c 0,27,28
 224 -7 224 -7 196.5 -3 c 128,-1,29
 169 1 169 1 137 15 c 1,30,-1
 137 -244 l 1,31,-1
 75 -244 l 1,32,-1
 76 700 l 1,33,-1
 138 700 l 1,34,-1
 138 490 l 1,13,14
EndSplineSet
EndChar

StartChar: germandbls
Encoding: 223 223 137
Width: 503
Flags: W
LayerCount: 2
Fore
SplineSet
460 188 m 1,0,1
 460 164 460 164 452.5 132 c 128,-1,2
 445 100 445 100 425 70.5 c 128,-1,3
 405 41 405 41 369 20.5 c 128,-1,4
 333 0 333 0 275 0 c 2,5,-1
 217 0 l 1,6,-1
 217 66 l 1,7,-1
 273 66 l 2,8,9
 289 66 289 66 309.5 70.5 c 128,-1,10
 330 75 330 75 348.5 88 c 128,-1,11
 367 101 367 101 379.5 125 c 128,-1,12
 392 149 392 149 392 188 c 2,13,-1
 392 230 l 2,14,15
 392 269 392 269 380.5 293 c 128,-1,16
 369 317 369 317 352.5 330 c 128,-1,17
 336 343 336 343 317 347 c 128,-1,18
 298 351 298 351 282 351 c 2,19,-1
 252 351 l 1,20,-1
 252 417 l 1,21,-1
 284 417 l 2,22,23
 326 417 326 417 346.5 444 c 128,-1,24
 367 471 367 471 367 518 c 0,25,26
 367 557 367 557 354.5 581 c 128,-1,27
 342 605 342 605 324 618 c 128,-1,28
 306 631 306 631 285.5 635 c 128,-1,29
 265 639 265 639 249 639 c 256,30,31
 233 639 233 639 212 635 c 128,-1,32
 191 631 191 631 172.5 618 c 128,-1,33
 154 605 154 605 141 581 c 128,-1,34
 128 557 128 557 128 518 c 2,35,-1
 128 0 l 1,36,-1
 61 0 l 1,37,-1
 61 520 l 2,38,39
 61 542 61 542 68.5 574 c 128,-1,40
 76 606 76 606 96.5 635 c 128,-1,41
 117 664 117 664 153.5 684.5 c 128,-1,42
 190 705 190 705 249 705 c 0,43,44
 307 705 307 705 343 684.5 c 128,-1,45
 379 664 379 664 399.5 634.5 c 128,-1,46
 420 605 420 605 427 573 c 128,-1,47
 434 541 434 541 434 518 c 0,48,49
 434 480 434 480 419 443 c 128,-1,50
 404 406 404 406 371 388 c 1,51,52
 399 374 399 374 416.5 354 c 128,-1,53
 434 334 434 334 444 311.5 c 128,-1,54
 454 289 454 289 457 268 c 128,-1,55
 460 247 460 247 460 232 c 2,56,-1
 460 188 l 1,57,-1
 460 188 l 1,0,1
EndSplineSet
EndChar

StartChar: ae
Encoding: 230 230 143
Width: 639
Flags: W
LayerCount: 2
Fore
SplineSet
301 24 m 1,0,1
 269 4 269 4 235 -3 c 128,-1,2
 201 -10 201 -10 181 -10 c 0,3,4
 152 -10 152 -10 127 1.5 c 128,-1,5
 102 13 102 13 83.5 33 c 128,-1,6
 65 53 65 53 54.5 79.5 c 128,-1,7
 44 106 44 106 44 136 c 2,8,-1
 44 191 l 2,9,10
 44 220 44 220 54.5 246 c 128,-1,11
 65 272 65 272 83.5 291.5 c 128,-1,12
 102 311 102 311 127 322.5 c 128,-1,13
 152 334 152 334 181 334 c 0,14,15
 187 334 187 334 199.5 333.5 c 128,-1,16
 212 333 212 333 226.5 331 c 128,-1,17
 241 329 241 329 256 324.5 c 128,-1,18
 271 320 271 320 284 313 c 1,19,-1
 284 345 l 1,20,21
 281 364 281 364 272.5 383 c 128,-1,22
 264 402 264 402 251.5 416 c 128,-1,23
 239 430 239 430 223.5 439 c 128,-1,24
 208 448 208 448 190 448 c 0,25,26
 183 448 183 448 163 443 c 128,-1,27
 143 438 143 438 120 433 c 1,28,29
 94 426 94 426 62 418 c 1,30,-1
 44 478 l 1,31,32
 78 487 78 487 107 494 c 0,33,34
 132 500 132 500 155.5 505 c 128,-1,35
 179 510 179 510 190 510 c 0,36,37
 226 510 226 510 256.5 493 c 128,-1,38
 287 476 287 476 308 447 c 1,39,40
 327 477 327 477 356 493.5 c 128,-1,41
 385 510 385 510 423 510 c 2,42,-1
 456 510 l 2,43,44
 485 510 485 510 510.5 499 c 128,-1,45
 536 488 536 488 555 468.5 c 128,-1,46
 574 449 574 449 585 422.5 c 128,-1,47
 596 396 596 396 596 365 c 2,48,-1
 596 333 l 2,49,50
 596 290 596 290 581 261 c 128,-1,51
 566 232 566 232 539.5 214 c 128,-1,52
 513 196 513 196 478 188 c 128,-1,53
 443 180 443 180 404 180 c 0,54,55
 376 180 376 180 348 183 c 1,56,-1
 348 133 l 1,57,58
 356 98 356 98 383 76 c 128,-1,59
 410 54 410 54 445 54 c 0,60,61
 447 54 447 54 468.5 58.5 c 128,-1,62
 490 63 490 63 515 69 c 0,63,64
 544 75 544 75 579 84 c 1,65,-1
 595 18 l 1,66,67
 557 10 557 10 525 4 c 0,68,69
 498 -1 498 -1 474 -5 c 128,-1,70
 450 -9 450 -9 445 -9 c 0,71,72
 428 -9 428 -9 410 -4.5 c 128,-1,73
 392 0 392 0 376 6.5 c 128,-1,74
 360 13 360 13 347 22 c 128,-1,75
 334 31 334 31 325 40 c 1,76,-1
 301 24 l 1,0,1
181 271 m 0,77,78
 150 271 150 271 128.5 248 c 128,-1,79
 107 225 107 225 107 194 c 2,80,-1
 107 132 l 2,81,82
 107 100 107 100 128.5 77.5 c 128,-1,83
 150 55 150 55 180 55 c 0,84,85
 191 55 191 55 209 60 c 128,-1,86
 227 65 227 65 244 71 c 0,87,88
 263 78 263 78 285 88 c 1,89,-1
 285 129 l 1,90,91
 284 134 284 134 284 139.5 c 128,-1,92
 284 145 284 145 284 150 c 2,93,-1
 284 240 l 1,94,95
 279 243 279 243 269 248 c 128,-1,96
 259 253 259 253 245.5 258.5 c 128,-1,97
 232 264 232 264 215.5 267.5 c 128,-1,98
 199 271 199 271 181 271 c 0,77,78
456 249 m 1,99,100
 472 248 472 248 486 254.5 c 128,-1,101
 500 261 500 261 510 272 c 128,-1,102
 520 283 520 283 526 298 c 128,-1,103
 532 313 532 313 532 329 c 2,104,-1
 532 370 l 2,105,106
 532 391 532 391 524 405.5 c 128,-1,107
 516 420 516 420 502.5 429 c 128,-1,108
 489 438 489 438 471 442 c 128,-1,109
 453 446 453 446 434 446 c 0,110,111
 400 446 400 446 374 425.5 c 128,-1,112
 348 405 348 405 348 370 c 2,113,-1
 348 249 l 1,114,-1
 456 249 l 1,99,100
EndSplineSet
EndChar

StartChar: igrave
Encoding: 236 236 149
Width: 187
Flags: W
LayerCount: 2
Fore
SplineSet
61 500 m 1,0,-1
 126 500 l 1,1,-1
 126 0 l 1,2,-1
 61 0 l 1,3,-1
 61 500 l 1,0,-1
63 580 m 1,4,-1
 -50 737 l 1,5,-1
 27 737 l 1,6,-1
 130 580 l 1,7,-1
 63 580 l 1,4,-1
EndSplineSet
EndChar

StartChar: iacute
Encoding: 237 237 150
Width: 188
Flags: W
LayerCount: 2
Fore
SplineSet
61 500 m 1,0,-1
 127 500 l 1,1,-1
 127 0 l 1,2,-1
 61 0 l 1,3,-1
 61 500 l 1,0,-1
128 581 m 1,4,-1
 61 581 l 1,5,-1
 164 738 l 1,6,-1
 241 738 l 1,7,-1
 128 581 l 1,4,-1
EndSplineSet
EndChar

StartChar: idieresis
Encoding: 239 239 152
Width: 187
Flags: W
LayerCount: 2
Fore
SplineSet
61 500 m 1,0,-1
 126 500 l 1,1,-1
 126 0 l 1,2,-1
 61 0 l 1,3,-1
 61 500 l 1,0,-1
158 591 m 1,4,-1
 158 679 l 1,5,-1
 228 679 l 1,6,-1
 228 591 l 1,7,-1
 158 591 l 1,4,-1
-34 591 m 1,8,-1
 -34 679 l 1,9,-1
 36 679 l 1,10,-1
 36 591 l 1,11,-1
 -34 591 l 1,8,-1
EndSplineSet
EndChar

StartChar: thorn
Encoding: 254 254 166
Width: 418
Flags: W
LayerCount: 2
Fore
SplineSet
121 81 m 2,0,1
 123 79 123 79 125 79 c 1,2,-1
 125 75 l 1,3,-1
 121 81 l 2,0,1
125 79 m 1,4,5
 151 65 151 65 176 59.5 c 128,-1,6
 201 54 201 54 230 54 c 0,7,8
 260 54 260 54 281.5 76.5 c 128,-1,9
 303 99 303 99 303 131 c 2,10,-1
 303 368 l 2,11,12
 303 400 303 400 281.5 423 c 128,-1,13
 260 446 260 446 229 446 c 0,14,15
 208 446 208 446 177.5 438 c 128,-1,16
 147 430 147 430 125 415 c 1,17,-1
 125 79 l 1,4,5
124 485 m 1,18,19
 161 503 161 503 187.5 506 c 128,-1,20
 214 509 214 509 229 509 c 0,21,22
 257 509 257 509 282 497.5 c 128,-1,23
 307 486 307 486 325.5 466.5 c 128,-1,24
 344 447 344 447 354.5 421 c 128,-1,25
 365 395 365 395 365 365 c 2,26,-1
 365 135 l 2,27,28
 365 105 365 105 354.5 79 c 128,-1,29
 344 53 344 53 325.5 33.5 c 128,-1,30
 307 14 307 14 282 3 c 128,-1,31
 257 -8 257 -8 229 -8 c 0,32,33
 209 -8 209 -8 182 -4 c 128,-1,34
 155 0 155 0 123 14 c 1,35,-1
 123 -243 l 1,36,-1
 61 -243 l 1,37,-1
 62 694 l 1,38,-1
 124 694 l 1,39,-1
 124 485 l 1,18,19
EndSplineSet
EndChar

StartChar: Lslash
Encoding: 321 321 168
Width: 388
Flags: W
LayerCount: 2
Fore
SplineSet
365 1 m 1,0,-1
 78 1 l 1,1,-1
 78 206 l 1,2,-1
 11 206 l 1,3,-1
 11 273 l 1,4,-1
 78 273 l 1,5,-1
 78 700 l 1,6,-1
 148 700 l 1,7,-1
 148 273 l 1,8,-1
 363 273 l 1,9,-1
 363 206 l 1,10,-1
 148 206 l 1,11,-1
 148 70 l 1,12,-1
 365 70 l 1,13,-1
 365 1 l 1,0,-1
EndSplineSet
EndChar

StartChar: lslash
Encoding: 322 322 169
Width: 378
Flags: W
LayerCount: 2
Fore
SplineSet
188 203 m 1,0,-1
 188 130 l 2,1,2
 188 94 188 94 206 80.5 c 128,-1,3
 224 67 224 67 250 67 c 2,4,-1
 269 67 l 1,5,-1
 269 1 l 1,6,-1
 245 1 l 2,7,8
 194 1 194 1 159 32.5 c 128,-1,9
 124 64 124 64 124 135 c 2,10,-1
 124 203 l 1,11,-1
 23 203 l 1,12,-1
 23 269 l 1,13,-1
 124 269 l 1,14,-1
 124 695 l 1,15,-1
 188 695 l 1,16,-1
 188 269 l 1,17,-1
 370 269 l 1,18,-1
 370 203 l 1,19,-1
 188 203 l 1,0,-1
EndSplineSet
EndChar

StartChar: OE
Encoding: 338 338 170
Width: 721
Flags: W
LayerCount: 2
Fore
SplineSet
261 75 m 0,0,1
 274 75 274 75 293.5 79 c 128,-1,2
 313 83 313 83 332 93.5 c 128,-1,3
 351 104 351 104 366 122 c 128,-1,4
 381 140 381 140 387 169 c 1,5,-1
 387 546 l 1,6,7
 384 577 384 577 369 596.5 c 128,-1,8
 354 616 354 616 334.5 627 c 128,-1,9
 315 638 315 638 295 641.5 c 128,-1,10
 275 645 275 645 261 645 c 0,11,12
 246 645 246 645 223.5 640.5 c 128,-1,13
 201 636 201 636 181 623 c 128,-1,14
 161 610 161 610 146.5 587.5 c 128,-1,15
 132 565 132 565 132 528 c 2,16,-1
 132 184 l 2,17,18
 132 147 132 147 146.5 125.5 c 128,-1,19
 161 104 161 104 181 92.5 c 128,-1,20
 201 81 201 81 223.5 78 c 128,-1,21
 246 75 246 75 261 75 c 0,0,1
387 11 m 1,22,-1
 387 40 l 1,23,24
 364 23 364 23 333 12 c 128,-1,25
 302 1 302 1 260 1 c 0,26,27
 203 1 203 1 165.5 21.5 c 128,-1,28
 128 42 128 42 105.5 70.5 c 128,-1,29
 83 99 83 99 74 130.5 c 128,-1,30
 65 162 65 162 65 185 c 2,31,-1
 65 528 l 2,32,33
 65 550 65 550 74 583 c 128,-1,34
 83 616 83 616 105 646 c 128,-1,35
 127 676 127 676 165 697.5 c 128,-1,36
 203 719 203 719 261 719 c 0,37,38
 303 719 303 719 333.5 707 c 128,-1,39
 364 695 364 695 387 675 c 1,40,-1
 387 710 l 1,41,-1
 677 710 l 1,42,-1
 677 640 l 1,43,-1
 457 640 l 1,44,-1
 457 397 l 1,45,-1
 629 397 l 1,46,-1
 629 326 l 1,47,-1
 457 326 l 1,48,-1
 457 81 l 1,49,-1
 679 81 l 1,50,-1
 679 11 l 1,51,-1
 387 11 l 1,22,-1
EndSplineSet
EndChar

StartChar: oe
Encoding: 339 339 171
Width: 662
Flags: W
LayerCount: 2
Fore
SplineSet
306 356 m 2,0,1
 306 386 306 386 295.5 403.5 c 128,-1,2
 285 421 285 421 269.5 430.5 c 128,-1,3
 254 440 254 440 237.5 443 c 128,-1,4
 221 446 221 446 209 446 c 256,5,6
 197 446 197 446 180 443 c 128,-1,7
 163 440 163 440 148 430.5 c 128,-1,8
 133 421 133 421 122 403.5 c 128,-1,9
 111 386 111 386 111 356 c 2,10,-1
 111 145 l 2,11,12
 111 115 111 115 122 97.5 c 128,-1,13
 133 80 133 80 148 70 c 128,-1,14
 163 60 163 60 180 57 c 128,-1,15
 197 54 197 54 209 54 c 256,16,17
 221 54 221 54 237.5 57 c 128,-1,18
 254 60 254 60 269.5 70 c 128,-1,19
 285 80 285 80 295.5 97.5 c 128,-1,20
 306 115 306 115 306 145 c 2,21,-1
 306 356 l 2,0,1
365 138 m 2,22,23
 365 91 365 91 348 62.5 c 128,-1,24
 331 34 331 34 306.5 18 c 128,-1,25
 282 2 282 2 255 -3 c 128,-1,26
 228 -8 228 -8 209 -8 c 256,27,28
 190 -8 190 -8 163.5 -3 c 128,-1,29
 137 2 137 2 112.5 18 c 128,-1,30
 88 34 88 34 70.5 62.5 c 128,-1,31
 53 91 53 91 53 138 c 2,32,-1
 53 363 l 2,33,34
 53 410 53 410 70.5 438.5 c 128,-1,35
 88 467 88 467 112.5 482.5 c 128,-1,36
 137 498 137 498 163.5 503 c 128,-1,37
 190 508 190 508 209 508 c 256,38,39
 228 508 228 508 255 503 c 128,-1,40
 282 498 282 498 306.5 482.5 c 128,-1,41
 331 467 331 467 348 438.5 c 128,-1,42
 365 410 365 410 365 363 c 2,43,-1
 365 138 l 2,22,23
480 248 m 2,44,45
 512 248 512 248 533 272.5 c 128,-1,46
 554 297 554 297 554 329 c 2,47,-1
 554 370 l 2,48,49
 554 391 554 391 546 405.5 c 128,-1,50
 538 420 538 420 524.5 429 c 128,-1,51
 511 438 511 438 493.5 442 c 128,-1,52
 476 446 476 446 457 446 c 0,53,54
 422 446 422 446 396.5 425.5 c 128,-1,55
 371 405 371 405 371 370 c 2,56,-1
 371 249 l 1,57,-1
 480 248 l 2,44,45
306 365 m 2,58,59
 306 395 306 395 317 421.5 c 128,-1,60
 328 448 328 448 346.5 467.5 c 128,-1,61
 365 487 365 487 390.5 498.5 c 128,-1,62
 416 510 416 510 445 510 c 2,63,-1
 479 510 l 2,64,65
 508 510 508 510 533.5 499 c 128,-1,66
 559 488 559 488 578 468.5 c 128,-1,67
 597 449 597 449 608 422.5 c 128,-1,68
 619 396 619 396 619 365 c 2,69,-1
 619 333 l 2,70,71
 619 290 619 290 604 261 c 128,-1,72
 589 232 589 232 562.5 214 c 128,-1,73
 536 196 536 196 501 188 c 128,-1,74
 466 180 466 180 427 180 c 0,75,76
 399 180 399 180 371 183 c 1,77,-1
 371 133 l 1,78,79
 378 98 378 98 405.5 76 c 128,-1,80
 433 54 433 54 468 54 c 0,81,82
 476 54 476 54 498.5 58.5 c 128,-1,83
 521 63 521 63 544 68 c 0,84,85
 571 74 571 74 602 83 c 1,86,-1
 618 18 l 1,87,88
 584 10 584 10 555 4 c 0,89,90
 530 -1 530 -1 505 -5 c 128,-1,91
 480 -9 480 -9 468 -9 c 0,92,93
 435 -9 435 -9 405.5 3 c 128,-1,94
 376 15 376 15 354 36 c 128,-1,95
 332 57 332 57 319 86 c 128,-1,96
 306 115 306 115 306 150 c 2,97,-1
 306 365 l 2,58,59
EndSplineSet
EndChar

StartChar: circumflex
Encoding: 710 710 177
Width: 396
Flags: W
LayerCount: 2
Fore
SplineSet
268 609 m 1,0,-1
 195 685 l 1,1,-1
 122 609 l 1,2,-1
 57 609 l 1,3,-1
 165 744 l 1,4,-1
 224 744 l 1,5,-1
 332 609 l 1,6,-1
 268 609 l 1,0,-1
EndSplineSet
EndChar

StartChar: caron
Encoding: 711 711 178
Width: 401
Flags: W
LayerCount: 2
Fore
SplineSet
122 743 m 1,0,-1
 195 667 l 1,1,-1
 268 743 l 1,2,-1
 333 743 l 1,3,-1
 225 608 l 1,4,-1
 166 608 l 1,5,-1
 58 743 l 1,6,-1
 122 743 l 1,0,-1
EndSplineSet
EndChar

StartChar: tilde
Encoding: 732 732 180
Width: 497
Flags: W
LayerCount: 2
Fore
SplineSet
371 651 m 1,0,-1
 399 589 l 1,1,-1
 121 589 l 1,2,-1
 90 651 l 1,3,-1
 371 651 l 1,0,-1
EndSplineSet
EndChar

StartChar: endash
Encoding: 8211 8211 181
Width: 470
Flags: W
LayerCount: 2
Fore
SplineSet
61 203 m 1,0,-1
 61 269 l 1,1,-1
 408 269 l 1,2,-1
 408 203 l 1,3,-1
 61 203 l 1,0,-1
EndSplineSet
EndChar

StartChar: emdash
Encoding: 8212 8212 182
Width: 733
Flags: W
LayerCount: 2
Fore
SplineSet
60 203 m 1,0,-1
 60 269 l 1,1,-1
 671 269 l 1,2,-1
 671 203 l 1,3,-1
 60 203 l 1,0,-1
EndSplineSet
EndChar

StartChar: quotesinglbase
Encoding: 8218 8218 183
Width: 193
Flags: W
LayerCount: 2
Fore
SplineSet
151 444 m 1,0,1
 151 387 151 387 125.5 351.5 c 128,-1,2
 100 316 100 316 57 299 c 1,3,-1
 38 369 l 1,4,5
 55 377 55 377 67.5 394 c 128,-1,6
 80 411 80 411 80 445 c 2,7,-1
 80 501 l 1,8,-1
 151 501 l 1,9,-1
 151 444 l 1,10,-1
 151 444 l 1,0,1
EndSplineSet
EndChar

StartChar: quotedblleft
Encoding: 8220 8220 184
Width: 320
Flags: W
LayerCount: 2
Fore
SplineSet
46 554 m 2,0,1
 46 610 46 610 71.5 645.5 c 128,-1,2
 97 681 97 681 139 698 c 1,3,-1
 159 628 l 1,4,5
 142 620 142 620 129 603 c 128,-1,6
 116 586 116 586 116 553 c 2,7,-1
 116 496 l 1,8,-1
 46 496 l 1,9,-1
 46 554 l 2,0,1
173 554 m 2,10,11
 173 610 173 610 198.5 645.5 c 128,-1,12
 224 681 224 681 267 698 c 1,13,-1
 286 628 l 1,14,15
 269 620 269 620 256.5 603 c 128,-1,16
 244 586 244 586 244 553 c 2,17,-1
 244 496 l 1,18,-1
 173 496 l 1,19,-1
 173 554 l 2,10,11
EndSplineSet
EndChar

StartChar: quotedblright
Encoding: 8221 8221 185
Width: 315
Flags: W
LayerCount: 2
Fore
SplineSet
275 637 m 2,0,1
 275 580 275 580 249.5 545 c 128,-1,2
 224 510 224 510 181 492 c 1,3,-1
 162 562 l 1,4,5
 179 570 179 570 192 587 c 128,-1,6
 205 604 205 604 205 638 c 2,7,-1
 205 695 l 1,8,-1
 275 695 l 1,9,-1
 275 637 l 2,0,1
147 637 m 2,10,11
 147 580 147 580 121.5 545 c 128,-1,12
 96 510 96 510 54 492 c 1,13,-1
 34 562 l 1,14,15
 51 570 51 570 64 587 c 128,-1,16
 77 604 77 604 77 638 c 2,17,-1
 77 695 l 1,18,-1
 147 695 l 1,19,-1
 147 637 l 2,10,11
EndSplineSet
EndChar

StartChar: bullet
Encoding: 8226 8226 186
Width: 297
Flags: W
LayerCount: 2
Fore
SplineSet
256 247 m 256,0,1
 256 225 256 225 247.5 205.5 c 128,-1,2
 239 186 239 186 224 171 c 128,-1,3
 209 156 209 156 189.5 147.5 c 128,-1,4
 170 139 170 139 148 139 c 256,5,6
 126 139 126 139 106.5 147.5 c 128,-1,7
 87 156 87 156 72.5 171 c 128,-1,8
 58 186 58 186 49.5 205.5 c 128,-1,9
 41 225 41 225 41 247 c 256,10,11
 41 269 41 269 49.5 288.5 c 128,-1,12
 58 308 58 308 72.5 323 c 128,-1,13
 87 338 87 338 106.5 346.5 c 128,-1,14
 126 355 126 355 148 355 c 256,15,16
 170 355 170 355 189.5 346.5 c 128,-1,17
 209 338 209 338 224 323 c 128,-1,18
 239 308 239 308 247.5 288.5 c 128,-1,19
 256 269 256 269 256 247 c 256,0,1
EndSplineSet
EndChar

StartChar: ellipsis
Encoding: 8230 8230 187
Width: 502
Flags: W
LayerCount: 2
Fore
SplineSet
54 5 m 1,0,-1
 54 104 l 1,1,-1
 135 104 l 1,2,-1
 135 5 l 1,3,-1
 54 5 l 1,0,-1
211 5 m 1,4,-1
 211 104 l 1,5,-1
 292 104 l 1,6,-1
 292 5 l 1,7,-1
 211 5 l 1,4,-1
367 5 m 1,8,-1
 367 104 l 1,9,-1
 448 104 l 1,10,-1
 448 5 l 1,11,-1
 367 5 l 1,8,-1
EndSplineSet
EndChar

StartChar: fraction
Encoding: 8260 8260 188
Width: 224
Flags: W
LayerCount: 2
Fore
SplineSet
126 694 m 1,0,-1
 198 694 l 1,1,-1
 98 1 l 1,2,-1
 26 1 l 1,3,-1
 126 694 l 1,0,-1
EndSplineSet
EndChar

StartChar: Euro
Encoding: 8364 8364 189
Width: 466
Flags: W
LayerCount: 2
Fore
SplineSet
414 140 m 2,0,1
 414 110 414 110 403.5 84.5 c 128,-1,2
 393 59 393 59 374.5 40 c 128,-1,3
 356 21 356 21 331 10.5 c 128,-1,4
 306 0 306 0 278 0 c 2,5,-1
 246 0 l 2,6,7
 217 0 217 0 192.5 10.5 c 128,-1,8
 168 21 168 21 150 40 c 128,-1,9
 132 59 132 59 121.5 84.5 c 128,-1,10
 111 110 111 110 111 140 c 2,11,-1
 111 243 l 1,12,-1
 41 243 l 1,13,-1
 41 300 l 1,14,-1
 111 300 l 1,15,-1
 111 360 l 1,16,-1
 41 360 l 1,17,-1
 41 416 l 1,18,-1
 111 416 l 1,19,-1
 111 519 l 2,20,21
 111 549 111 549 121.5 575 c 128,-1,22
 132 601 132 601 150.5 619.5 c 128,-1,23
 169 638 169 638 193.5 649 c 128,-1,24
 218 660 218 660 247 660 c 2,25,-1
 279 660 l 2,26,27
 307 660 307 660 331.5 649 c 128,-1,28
 356 638 356 638 374.5 619.5 c 128,-1,29
 393 601 393 601 403.5 575 c 128,-1,30
 414 549 414 549 414 519 c 2,31,-1
 414 490 l 1,32,-1
 351 490 l 1,33,-1
 351 519 l 2,34,35
 351 555 351 555 325.5 574 c 128,-1,36
 300 593 300 593 267 593 c 0,37,38
 249 593 249 593 232 589.5 c 128,-1,39
 215 586 215 586 202 577.5 c 128,-1,40
 189 569 189 569 181.5 554.5 c 128,-1,41
 174 540 174 540 174 519 c 2,42,-1
 174 416 l 1,43,-1
 323 416 l 1,44,-1
 323 360 l 1,45,-1
 174 360 l 1,46,-1
 174 300 l 1,47,-1
 323 300 l 1,48,-1
 323 243 l 1,49,-1
 174 243 l 1,50,-1
 174 143 l 2,51,52
 174 111 174 111 195 88 c 128,-1,53
 216 65 216 65 247 65 c 2,54,-1
 278 65 l 2,55,56
 308 65 308 65 329.5 88 c 128,-1,57
 351 111 351 111 351 143 c 2,58,-1
 351 172 l 1,59,-1
 414 172 l 1,60,-1
 414 140 l 2,0,1
EndSplineSet
EndChar

StartChar: trademark
Encoding: 8482 8482 190
Width: 544
Flags: W
LayerCount: 2
Fore
SplineSet
312 695 m 1,0,-1
 366 514 l 1,1,2
 379 558 379 558 394 604.5 c 128,-1,3
 409 651 409 651 421 695 c 1,4,-1
 472 695 l 1,5,-1
 472 376 l 1,6,-1
 435 376 l 1,7,-1
 435 606 l 1,8,9
 424 571 424 571 412 535 c 128,-1,10
 400 499 400 499 390 466 c 1,11,-1
 342 466 l 1,12,-1
 298 608 l 1,13,-1
 298 376 l 1,14,-1
 262 376 l 1,15,-1
 262 695 l 1,16,-1
 312 695 l 1,0,-1
209 681 m 1,17,-1
 209 671 l 1,18,-1
 139 671 l 1,19,-1
 139 390 l 1,20,-1
 129 390 l 1,21,-1
 129 671 l 1,22,-1
 57 671 l 1,23,-1
 57 681 l 1,24,-1
 209 681 l 1,17,-1
EndSplineSet
EndChar

StartChar: minus
Encoding: 8722 8722 191
Width: 479
Flags: W
LayerCount: 2
Fore
SplineSet
66 244 m 1,0,-1
 66 320 l 1,1,-1
 413 320 l 1,2,-1
 413 244 l 1,3,-1
 66 244 l 1,0,-1
EndSplineSet
EndChar

StartChar: fi
Encoding: 64257 64257 192
Width: 464
Flags: W
LayerCount: 2
Fore
SplineSet
338 695 m 1,0,-1
 403 695 l 1,1,-1
 403 605 l 1,2,-1
 338 605 l 1,3,-1
 338 695 l 1,0,-1
175 500 m 1,4,-1
 403 500 l 1,5,-1
 403 0 l 1,6,-1
 338 0 l 1,7,-1
 338 439 l 1,8,-1
 176 439 l 1,9,-1
 176 0 l 1,10,-1
 111 0 l 1,11,-1
 111 439 l 1,12,-1
 25 439 l 1,13,-1
 25 500 l 1,14,-1
 112 500 l 1,15,-1
 112 569 l 2,16,17
 112 640 112 640 146.5 671.5 c 128,-1,18
 181 703 181 703 232 703 c 2,19,-1
 257 703 l 1,20,-1
 257 637 l 1,21,-1
 237 637 l 2,22,23
 213 637 213 637 194 624 c 128,-1,24
 175 611 175 611 175 576 c 2,25,-1
 175 500 l 1,4,-1
EndSplineSet
EndChar

StartChar: fl
Encoding: 64258 64258 193
Width: 488
Flags: W
LayerCount: 2
Fore
SplineSet
337 439 m 1,0,-1
 176 439 l 1,1,-1
 176 0 l 1,2,-1
 110 0 l 1,3,-1
 110 439 l 1,4,-1
 25 439 l 1,5,-1
 25 500 l 1,6,-1
 111 500 l 1,7,-1
 111 569 l 2,8,9
 111 640 111 640 146 671.5 c 128,-1,10
 181 703 181 703 232 703 c 2,11,-1
 256 703 l 1,12,-1
 256 637 l 1,13,-1
 237 637 l 2,14,15
 213 637 213 637 194 624 c 128,-1,16
 175 611 175 611 175 576 c 2,17,-1
 175 500 l 1,18,-1
 337 500 l 1,19,-1
 337 695 l 1,20,-1
 401 695 l 1,21,-1
 401 130 l 2,22,23
 401 94 401 94 419.5 80.5 c 128,-1,24
 438 67 438 67 463 67 c 2,25,-1
 482 67 l 1,26,-1
 482 1 l 1,27,-1
 458 1 l 2,28,29
 407 1 407 1 372 32.5 c 128,-1,30
 337 64 337 64 337 135 c 2,31,-1
 337 439 l 1,0,-1
EndSplineSet
EndChar

